<?xml version="1.0" encoding="UTF-8"?>
<svg xmlns="http://www.w3.org/2000/svg" viewBox="0 0 897 641" font-family="Helvetica, Arial, sans-serif"><rect x="0" y="0" width="897" height="641" fill="#f7f6f1"/><rect x="12" y="12" width="873" height="52" fill="#1a1a1a"/><text x="30" y="38" fill="#f7f6f1" font-size="20" font-weight="700" letter-spacing="1">FIGURE 7 — BUILT SQUARE PANEL (3D)</text><text x="30" y="56" fill="#cfcfcf" font-size="12.5">One finished 4'×4' panel · matte-black top · layered edge · 4 leveler feet · tunnel mouth at front</text><g transform="translate(0,64)"><polygon points="348.9,70.0 826.9,346.0 548.0,507.0 70.0,231.0" fill="#e8e5dc"/><polygon points="348.9,202.2 358.8,208.0 348.9,213.8 338.9,208.0" fill="#2b2b2b" stroke="#111" stroke-width="0.4" stroke-linejoin="round"/><polygon points="338.9,210.3 348.9,216.0 348.9,213.8 338.9,208.0" fill="#161616" stroke="#111" stroke-width="0.4" stroke-linejoin="round"/><polygon points="358.8,210.3 348.9,216.0 348.9,213.8 358.8,208.0" fill="#202020" stroke="#111" stroke-width="0.4" stroke-linejoin="round"/><polygon points="524.1,303.4 534.1,309.2 524.1,314.9 514.2,309.2" fill="#2b2b2b" stroke="#111" stroke-width="0.4" stroke-linejoin="round"/><polygon points="173.6,303.4 183.5,309.2 173.6,314.9 163.6,309.2" fill="#2b2b2b" stroke="#111" stroke-width="0.4" stroke-linejoin="round"/><polygon points="348.9,168.9 540.1,279.3 348.9,389.7 157.6,279.3" fill="#34322e" stroke="#5a3a1a" stroke-width="0.4" stroke-linejoin="round"/><polygon points="514.2,311.5 524.1,317.2 524.1,314.9 514.2,309.2" fill="#161616" stroke="#111" stroke-width="0.4" stroke-linejoin="round"/><polygon points="534.1,311.5 524.1,317.2 524.1,314.9 534.1,309.2" fill="#202020" stroke="#111" stroke-width="0.4" stroke-linejoin="round"/><polygon points="163.6,311.5 173.6,317.2 173.6,314.9 163.6,309.2" fill="#161616" stroke="#111" stroke-width="0.4" stroke-linejoin="round"/><polygon points="183.5,311.5 173.6,317.2 173.6,314.9 183.5,309.2" fill="#202020" stroke="#111" stroke-width="0.4" stroke-linejoin="round"/><polygon points="540.1,309.2 348.9,419.6 348.9,394.3 540.1,283.9" fill="#c89f69" stroke="#5a3a1a" stroke-width="0.4" stroke-linejoin="round"/><polygon points="348.9,419.6 157.6,309.2 157.6,283.9 348.9,394.3" fill="#b3854f" stroke="#5a3a1a" stroke-width="0.4" stroke-linejoin="round"/><polygon points="540.1,283.9 348.9,394.3 348.9,390.8 540.1,280.4" fill="#dcbb84" stroke="#5a3a1a" stroke-width="0.4" stroke-linejoin="round"/><polygon points="348.9,394.3 157.6,283.9 157.6,280.4 348.9,390.8" fill="#c9a871" stroke="#5a3a1a" stroke-width="0.4" stroke-linejoin="round"/><polygon points="540.1,280.4 348.9,390.8 348.9,389.7 540.1,279.3" fill="#262320" stroke="#5a3a1a" stroke-width="0.4" stroke-linejoin="round"/><polygon points="348.9,390.8 157.6,280.4 157.6,279.3 348.9,389.7" fill="#191916" stroke="#5a3a1a" stroke-width="0.4" stroke-linejoin="round"/><polygon points="241.3,357.5 265.2,371.3 265.2,352.9 241.3,339.1" fill="#0d0d0d" stroke="#000" stroke-width="0.4" stroke-linejoin="round"/><polygon points="348.9,404.6 358.8,410.4 348.9,416.1 338.9,410.4" fill="#2b2b2b" stroke="#111" stroke-width="0.4" stroke-linejoin="round"/><polygon points="338.9,412.7 348.9,418.4 348.9,416.1 338.9,410.4" fill="#161616" stroke="#111" stroke-width="0.4" stroke-linejoin="round"/><polygon points="358.8,412.7 348.9,418.4 348.9,416.1 358.8,410.4" fill="#202020" stroke="#111" stroke-width="0.4" stroke-linejoin="round"/></g></svg>