<?xml version="1.0" encoding="UTF-8"?>
<svg xmlns="http://www.w3.org/2000/svg" viewBox="0 0 1446 1168" font-family="Helvetica, Arial, sans-serif"><rect x="0" y="0" width="1446" height="1168" fill="#f7f6f1"/><rect x="12" y="12" width="1422" height="52" fill="#1a1a1a"/><text x="30" y="38" fill="#f7f6f1" font-size="20" font-weight="700" letter-spacing="1">FIGURE 9 — FULL STAGE, BUILT (3D)</text><text x="30" y="56" fill="#cfcfcf" font-size="12.5">All 15 panels assembled · curved back hugs the LED wall · black skirt + LED glow at the front</text><g transform="translate(0,64)"><polygon points="498.5,398.6 538.3,402.6 538.3,84.0 498.5,80.0" fill="#1f9d5b" stroke="#178a4c" stroke-width="0.4" stroke-linejoin="round"/><polygon points="538.3,402.6 576.2,407.8 576.2,89.2 538.3,84.0" fill="#1f9d5b" stroke="#178a4c" stroke-width="0.4" stroke-linejoin="round"/><polygon points="576.2,407.8 612.4,413.8 612.4,95.2 576.2,89.2" fill="#1f9d5b" stroke="#178a4c" stroke-width="0.4" stroke-linejoin="round"/><polygon points="612.4,413.8 647.2,420.8 647.2,102.2 612.4,95.2" fill="#1f9d5b" stroke="#178a4c" stroke-width="0.4" stroke-linejoin="round"/><polygon points="647.2,420.8 680.4,428.6 680.4,110.0 647.2,102.2" fill="#1f9d5b" stroke="#178a4c" stroke-width="0.4" stroke-linejoin="round"/><polygon points="680.4,428.6 712.4,437.1 712.4,118.5 680.4,110.0" fill="#1f9d5b" stroke="#178a4c" stroke-width="0.4" stroke-linejoin="round"/><polygon points="510.2,401.3 533.2,404.2 555.5,407.6 577.3,411.2 598.5,415.2 619.1,419.4 639.2,424.0 658.9,428.9 678.1,434.0 594.4,482.3 482.2,417.5" fill="#34322e" stroke="#5a3a1a" stroke-width="0.3" stroke-linejoin="round"/><polygon points="712.4,437.1 743.1,446.4 743.1,127.8 712.4,118.5" fill="#1f9d5b" stroke="#178a4c" stroke-width="0.4" stroke-linejoin="round"/><polygon points="743.1,446.4 772.6,456.4 772.6,137.8 743.1,127.8" fill="#1f9d5b" stroke="#178a4c" stroke-width="0.4" stroke-linejoin="round"/><polygon points="772.6,456.4 800.9,467.0 800.9,148.4 772.6,137.8" fill="#1f9d5b" stroke="#178a4c" stroke-width="0.4" stroke-linejoin="round"/><polygon points="594.4,499.8 482.2,435.0 482.2,420.2 594.4,485.0" fill="#b3854f" stroke="#5a3a1a" stroke-width="0.3" stroke-linejoin="round"/><polygon points="594.4,485.0 482.2,420.2 482.2,418.2 594.4,483.0" fill="#c9a871" stroke="#5a3a1a" stroke-width="0.3" stroke-linejoin="round"/><polygon points="594.4,483.0 482.2,418.2 482.2,417.5 594.4,482.3" fill="#191916" stroke="#5a3a1a" stroke-width="0.3" stroke-linejoin="round"/><polygon points="800.9,467.0 828.1,478.3 828.1,159.7 800.9,148.4" fill="#1f9d5b" stroke="#178a4c" stroke-width="0.4" stroke-linejoin="round"/><polygon points="678.1,451.6 594.4,499.8 594.4,485.0 678.1,436.7" fill="#c89f69" stroke="#5a3a1a" stroke-width="0.3" stroke-linejoin="round"/><polygon points="678.1,436.7 594.4,485.0 594.4,483.0 678.1,434.7" fill="#dcbb84" stroke="#5a3a1a" stroke-width="0.3" stroke-linejoin="round"/><polygon points="678.1,434.7 594.4,483.0 594.4,482.3 678.1,434.0" fill="#262320" stroke="#5a3a1a" stroke-width="0.3" stroke-linejoin="round"/><polygon points="828.1,478.3 854.2,490.3 854.2,171.7 828.1,159.7" fill="#1f9d5b" stroke="#178a4c" stroke-width="0.4" stroke-linejoin="round"/><polygon points="678.1,434.0 696.8,439.4 715.0,445.1 732.9,451.0 750.3,457.1 767.3,463.5 783.8,470.1 800.0,477.0 815.8,484.1 706.7,547.1 594.4,482.3" fill="#34322e" stroke="#5a3a1a" stroke-width="0.3" stroke-linejoin="round"/><polygon points="854.2,490.3 879.2,502.9 879.2,184.3 854.2,171.7" fill="#1f9d5b" stroke="#178a4c" stroke-width="0.4" stroke-linejoin="round"/><polygon points="482.2,417.5 594.4,482.3 482.2,547.1 369.9,482.3" fill="#34322e" stroke="#5a3a1a" stroke-width="0.3" stroke-linejoin="round"/><polygon points="879.2,502.9 903.1,516.0 903.1,197.4 879.2,184.3" fill="#1f9d5b" stroke="#178a4c" stroke-width="0.4" stroke-linejoin="round"/><polygon points="903.1,516.0 925.9,529.9 925.9,211.3 903.1,197.4" fill="#1f9d5b" stroke="#178a4c" stroke-width="0.4" stroke-linejoin="round"/><polygon points="594.4,499.8 482.2,564.6 482.2,549.8 594.4,485.0" fill="#c89f69" stroke="#5a3a1a" stroke-width="0.3" stroke-linejoin="round"/><polygon points="482.2,564.6 369.9,499.8 369.9,485.0 482.2,549.8" fill="#b3854f" stroke="#5a3a1a" stroke-width="0.3" stroke-linejoin="round"/><polygon points="706.7,564.6 594.4,499.8 594.4,485.0 706.7,549.8" fill="#b3854f" stroke="#5a3a1a" stroke-width="0.3" stroke-linejoin="round"/><polygon points="594.4,485.0 482.2,549.8 482.2,547.8 594.4,483.0" fill="#dcbb84" stroke="#5a3a1a" stroke-width="0.3" stroke-linejoin="round"/><polygon points="482.2,549.8 369.9,485.0 369.9,483.0 482.2,547.8" fill="#c9a871" stroke="#5a3a1a" stroke-width="0.3" stroke-linejoin="round"/><polygon points="706.7,549.8 594.4,485.0 594.4,483.0 706.7,547.8" fill="#c9a871" stroke="#5a3a1a" stroke-width="0.3" stroke-linejoin="round"/><polygon points="594.4,483.0 482.2,547.8 482.2,547.1 594.4,482.3" fill="#262320" stroke="#5a3a1a" stroke-width="0.3" stroke-linejoin="round"/><polygon points="482.2,547.8 369.9,483.0 369.9,482.3 482.2,547.1" fill="#191916" stroke="#5a3a1a" stroke-width="0.3" stroke-linejoin="round"/><polygon points="706.7,547.8 594.4,483.0 594.4,482.3 706.7,547.1" fill="#191916" stroke="#5a3a1a" stroke-width="0.3" stroke-linejoin="round"/><polygon points="815.8,501.6 706.7,564.6 706.7,549.8 815.8,486.8" fill="#c89f69" stroke="#5a3a1a" stroke-width="0.3" stroke-linejoin="round"/><polygon points="815.8,486.8 706.7,549.8 706.7,547.8 815.8,484.8" fill="#dcbb84" stroke="#5a3a1a" stroke-width="0.3" stroke-linejoin="round"/><polygon points="815.8,484.8 706.7,547.8 706.7,547.1 815.8,484.1" fill="#262320" stroke="#5a3a1a" stroke-width="0.3" stroke-linejoin="round"/><polygon points="925.9,529.9 947.7,544.3 947.7,225.7 925.9,211.3" fill="#1f9d5b" stroke="#178a4c" stroke-width="0.4" stroke-linejoin="round"/><polygon points="498.5,80.0 538.3,84.0 576.2,89.2 612.4,95.2 647.2,102.2 680.4,110.0 712.4,118.5 743.1,127.8 772.6,137.8 800.9,148.4 828.1,159.7 854.2,171.7 879.2,184.3 903.1,197.4 925.9,211.3 947.7,225.7 968.4,240.7 987.9,256.4 1006.4,272.8 1023.7,289.8 1039.8,307.5 1054.6,326.0 1068.0,345.2 1080.1,365.2 1090.6,386.2 1099.5,408.0 1106.5,431.0 1101.8,433.7 1094.8,410.7 1086.0,388.9 1075.4,367.9 1063.4,347.9 1049.9,328.7 1035.1,310.2 1019.0,292.5 1001.7,275.5 983.3,259.1 963.7,243.4 943.0,228.4 921.2,214.0 898.4,200.1 874.5,187.0 849.5,174.4 823.4,162.4 796.2,151.1 767.9,140.5 738.4,130.5 707.7,121.2 675.8,112.7 642.5,104.9 607.8,97.9 571.5,91.9 533.6,86.7 493.9,82.7" fill="#54e09a" stroke="#178a4c" stroke-width="0.3" stroke-linejoin="round"/><polygon points="815.8,484.1 831.2,491.4 846.2,498.9 860.8,506.7 875.0,514.7 888.8,522.9 902.3,531.3 915.4,540.0 928.0,548.9 818.9,611.9 706.7,547.1" fill="#34322e" stroke="#5a3a1a" stroke-width="0.3" stroke-linejoin="round"/><polygon points="947.7,544.3 968.4,559.3 968.4,240.7 947.7,225.7" fill="#1f9d5b" stroke="#178a4c" stroke-width="0.4" stroke-linejoin="round"/><polygon points="267.1,561.3 272.9,564.6 267.1,568.0 261.2,564.6" fill="#2b2b2b" stroke="#111" stroke-width="0.4" stroke-linejoin="round"/><polygon points="369.9,482.3 482.2,547.1 369.9,611.9 257.7,547.1" fill="#34322e" stroke="#5a3a1a" stroke-width="0.3" stroke-linejoin="round"/><polygon points="594.4,482.3 706.7,547.1 594.4,611.9 482.2,547.1" fill="#34322e" stroke="#5a3a1a" stroke-width="0.3" stroke-linejoin="round"/><polygon points="261.2,566.0 267.1,569.4 267.1,568.0 261.2,564.6" fill="#161616" stroke="#111" stroke-width="0.4" stroke-linejoin="round"/><polygon points="272.9,566.0 267.1,569.4 267.1,568.0 272.9,564.6" fill="#202020" stroke="#111" stroke-width="0.4" stroke-linejoin="round"/><polygon points="968.4,559.3 987.9,575.0 987.9,256.4 968.4,240.7" fill="#1f9d5b" stroke="#178a4c" stroke-width="0.4" stroke-linejoin="round"/><polygon points="987.9,575.0 1006.4,591.4 1006.4,272.8 987.9,256.4" fill="#1f9d5b" stroke="#178a4c" stroke-width="0.4" stroke-linejoin="round"/><polygon points="482.2,564.6 369.9,629.4 369.9,614.6 482.2,549.8" fill="#c89f69" stroke="#5a3a1a" stroke-width="0.3" stroke-linejoin="round"/><polygon points="369.9,629.4 257.7,564.6 257.7,549.8 369.9,614.6" fill="#b3854f" stroke="#5a3a1a" stroke-width="0.3" stroke-linejoin="round"/><polygon points="706.7,564.6 594.4,629.4 594.4,614.6 706.7,549.8" fill="#c89f69" stroke="#5a3a1a" stroke-width="0.3" stroke-linejoin="round"/><polygon points="594.4,629.4 482.2,564.6 482.2,549.8 594.4,614.6" fill="#b3854f" stroke="#5a3a1a" stroke-width="0.3" stroke-linejoin="round"/><polygon points="818.9,629.4 706.7,564.6 706.7,549.8 818.9,614.6" fill="#b3854f" stroke="#5a3a1a" stroke-width="0.3" stroke-linejoin="round"/><polygon points="482.2,549.8 369.9,614.6 369.9,612.6 482.2,547.8" fill="#dcbb84" stroke="#5a3a1a" stroke-width="0.3" stroke-linejoin="round"/><polygon points="369.9,614.6 257.7,549.8 257.7,547.8 369.9,612.6" fill="#c9a871" stroke="#5a3a1a" stroke-width="0.3" stroke-linejoin="round"/><polygon points="706.7,549.8 594.4,614.6 594.4,612.6 706.7,547.8" fill="#dcbb84" stroke="#5a3a1a" stroke-width="0.3" stroke-linejoin="round"/><polygon points="594.4,614.6 482.2,549.8 482.2,547.8 594.4,612.6" fill="#c9a871" stroke="#5a3a1a" stroke-width="0.3" stroke-linejoin="round"/><polygon points="818.9,614.6 706.7,549.8 706.7,547.8 818.9,612.6" fill="#c9a871" stroke="#5a3a1a" stroke-width="0.3" stroke-linejoin="round"/><polygon points="482.2,547.8 369.9,612.6 369.9,611.9 482.2,547.1" fill="#262320" stroke="#5a3a1a" stroke-width="0.3" stroke-linejoin="round"/><polygon points="369.9,612.6 257.7,547.8 257.7,547.1 369.9,611.9" fill="#191916" stroke="#5a3a1a" stroke-width="0.3" stroke-linejoin="round"/><polygon points="706.7,547.8 594.4,612.6 594.4,611.9 706.7,547.1" fill="#262320" stroke="#5a3a1a" stroke-width="0.3" stroke-linejoin="round"/><polygon points="594.4,612.6 482.2,547.8 482.2,547.1 594.4,611.9" fill="#191916" stroke="#5a3a1a" stroke-width="0.3" stroke-linejoin="round"/><polygon points="818.9,612.6 706.7,547.8 706.7,547.1 818.9,611.9" fill="#191916" stroke="#5a3a1a" stroke-width="0.3" stroke-linejoin="round"/><polygon points="306.8,593.0 320.8,601.1 320.8,590.3 306.8,582.2" fill="#0d0d0d" stroke="#000" stroke-width="0.4" stroke-linejoin="round"/><polygon points="928.0,566.4 818.9,629.4 818.9,614.6 928.0,551.6" fill="#c89f69" stroke="#5a3a1a" stroke-width="0.3" stroke-linejoin="round"/><polygon points="928.0,551.6 818.9,614.6 818.9,612.6 928.0,549.6" fill="#dcbb84" stroke="#5a3a1a" stroke-width="0.3" stroke-linejoin="round"/><polygon points="928.0,549.6 818.9,612.6 818.9,611.9 928.0,548.9" fill="#262320" stroke="#5a3a1a" stroke-width="0.3" stroke-linejoin="round"/><polygon points="1006.4,591.4 1023.7,608.4 1023.7,289.8 1006.4,272.8" fill="#1f9d5b" stroke="#178a4c" stroke-width="0.4" stroke-linejoin="round"/><polygon points="928.0,548.9 940.3,558.0 952.2,567.3 963.7,576.9 974.7,586.7 985.4,596.8 995.6,607.1 1005.4,617.6 1014.8,628.4 931.1,676.7 818.9,611.9" fill="#34322e" stroke="#5a3a1a" stroke-width="0.3" stroke-linejoin="round"/><polygon points="1023.7,608.4 1039.8,626.1 1039.8,307.5 1023.7,289.8" fill="#1f9d5b" stroke="#178a4c" stroke-width="0.4" stroke-linejoin="round"/><polygon points="369.9,620.7 375.8,624.0 369.9,627.4 364.1,624.0" fill="#2b2b2b" stroke="#111" stroke-width="0.4" stroke-linejoin="round"/><polygon points="364.1,625.4 369.9,628.8 369.9,627.4 364.1,624.0" fill="#161616" stroke="#111" stroke-width="0.4" stroke-linejoin="round"/><polygon points="375.8,625.4 369.9,628.8 369.9,627.4 375.8,624.0" fill="#202020" stroke="#111" stroke-width="0.4" stroke-linejoin="round"/><polygon points="379.3,626.1 385.1,629.4 379.3,632.8 373.5,629.4" fill="#2b2b2b" stroke="#111" stroke-width="0.4" stroke-linejoin="round"/><polygon points="482.2,547.1 594.4,611.9 482.2,676.7 369.9,611.9" fill="#34322e" stroke="#5a3a1a" stroke-width="0.3" stroke-linejoin="round"/><polygon points="706.7,547.1 818.9,611.9 706.7,676.7 594.4,611.9" fill="#34322e" stroke="#5a3a1a" stroke-width="0.3" stroke-linejoin="round"/><polygon points="373.5,630.8 379.3,634.2 379.3,632.8 373.5,629.4" fill="#161616" stroke="#111" stroke-width="0.4" stroke-linejoin="round"/><polygon points="385.1,630.8 379.3,634.2 379.3,632.8 385.1,629.4" fill="#202020" stroke="#111" stroke-width="0.4" stroke-linejoin="round"/><polygon points="1039.8,626.1 1054.6,644.6 1054.6,326.0 1039.8,307.5" fill="#1f9d5b" stroke="#178a4c" stroke-width="0.4" stroke-linejoin="round"/><polygon points="617.8,281.1 1366.0,713.1 828.2,1023.6 80.0,591.6" fill="#eceadf"/><polygon points="1054.6,644.6 1068.0,663.8 1068.0,345.2 1054.6,326.0" fill="#1f9d5b" stroke="#178a4c" stroke-width="0.4" stroke-linejoin="round"/><polygon points="594.4,629.4 482.2,694.2 482.2,679.4 594.4,614.6" fill="#c89f69" stroke="#5a3a1a" stroke-width="0.3" stroke-linejoin="round"/><polygon points="482.2,694.2 369.9,629.4 369.9,614.6 482.2,679.4" fill="#b3854f" stroke="#5a3a1a" stroke-width="0.3" stroke-linejoin="round"/><polygon points="818.9,629.4 706.7,694.2 706.7,679.4 818.9,614.6" fill="#c89f69" stroke="#5a3a1a" stroke-width="0.3" stroke-linejoin="round"/><polygon points="706.7,694.2 594.4,629.4 594.4,614.6 706.7,679.4" fill="#b3854f" stroke="#5a3a1a" stroke-width="0.3" stroke-linejoin="round"/><polygon points="931.1,694.2 818.9,629.4 818.9,614.6 931.1,679.4" fill="#b3854f" stroke="#5a3a1a" stroke-width="0.3" stroke-linejoin="round"/><polygon points="594.4,614.6 482.2,679.4 482.2,677.4 594.4,612.6" fill="#dcbb84" stroke="#5a3a1a" stroke-width="0.3" stroke-linejoin="round"/><polygon points="482.2,679.4 369.9,614.6 369.9,612.6 482.2,677.4" fill="#c9a871" stroke="#5a3a1a" stroke-width="0.3" stroke-linejoin="round"/><polygon points="818.9,614.6 706.7,679.4 706.7,677.4 818.9,612.6" fill="#dcbb84" stroke="#5a3a1a" stroke-width="0.3" stroke-linejoin="round"/><polygon points="706.7,679.4 594.4,614.6 594.4,612.6 706.7,677.4" fill="#c9a871" stroke="#5a3a1a" stroke-width="0.3" stroke-linejoin="round"/><polygon points="931.1,679.4 818.9,614.6 818.9,612.6 931.1,677.4" fill="#c9a871" stroke="#5a3a1a" stroke-width="0.3" stroke-linejoin="round"/><polygon points="594.4,612.6 482.2,677.4 482.2,676.7 594.4,611.9" fill="#262320" stroke="#5a3a1a" stroke-width="0.3" stroke-linejoin="round"/><polygon points="482.2,677.4 369.9,612.6 369.9,611.9 482.2,676.7" fill="#191916" stroke="#5a3a1a" stroke-width="0.3" stroke-linejoin="round"/><polygon points="818.9,612.6 706.7,677.4 706.7,676.7 818.9,611.9" fill="#262320" stroke="#5a3a1a" stroke-width="0.3" stroke-linejoin="round"/><polygon points="706.7,677.4 594.4,612.6 594.4,611.9 706.7,676.7" fill="#191916" stroke="#5a3a1a" stroke-width="0.3" stroke-linejoin="round"/><polygon points="931.1,677.4 818.9,612.6 818.9,611.9 931.1,676.7" fill="#191916" stroke="#5a3a1a" stroke-width="0.3" stroke-linejoin="round"/><polygon points="419.0,657.8 433.1,665.9 433.1,655.1 419.0,647.0" fill="#0d0d0d" stroke="#000" stroke-width="0.4" stroke-linejoin="round"/><polygon points="1014.8,646.0 931.1,694.2 931.1,679.4 1014.8,631.1" fill="#c89f69" stroke="#5a3a1a" stroke-width="0.3" stroke-linejoin="round"/><polygon points="1014.8,631.1 931.1,679.4 931.1,677.4 1014.8,629.1" fill="#dcbb84" stroke="#5a3a1a" stroke-width="0.3" stroke-linejoin="round"/><polygon points="1014.8,629.1 931.1,677.4 931.1,676.7 1014.8,628.4" fill="#262320" stroke="#5a3a1a" stroke-width="0.3" stroke-linejoin="round"/><polygon points="1068.0,663.8 1080.1,683.8 1080.1,365.2 1068.0,345.2" fill="#1f9d5b" stroke="#178a4c" stroke-width="0.4" stroke-linejoin="round"/><polygon points="482.2,685.5 488.0,688.8 482.2,692.2 476.3,688.8" fill="#2b2b2b" stroke="#111" stroke-width="0.4" stroke-linejoin="round"/><polygon points="476.3,690.2 482.2,693.6 482.2,692.2 476.3,688.8" fill="#161616" stroke="#111" stroke-width="0.4" stroke-linejoin="round"/><polygon points="488.0,690.2 482.2,693.6 482.2,692.2 488.0,688.8" fill="#202020" stroke="#111" stroke-width="0.4" stroke-linejoin="round"/><polygon points="491.5,690.9 497.4,694.2 491.5,697.6 485.7,694.2" fill="#2b2b2b" stroke="#111" stroke-width="0.4" stroke-linejoin="round"/><polygon points="594.4,611.9 706.7,676.7 594.4,741.5 482.2,676.7" fill="#34322e" stroke="#5a3a1a" stroke-width="0.3" stroke-linejoin="round"/><polygon points="818.9,611.9 931.1,676.7 818.9,741.5 706.7,676.7" fill="#34322e" stroke="#5a3a1a" stroke-width="0.3" stroke-linejoin="round"/><polygon points="1080.1,683.8 1090.6,704.8 1090.6,386.2 1080.1,365.2" fill="#1f9d5b" stroke="#178a4c" stroke-width="0.4" stroke-linejoin="round"/><polygon points="485.7,695.6 491.5,699.0 491.5,697.6 485.7,694.2" fill="#161616" stroke="#111" stroke-width="0.4" stroke-linejoin="round"/><polygon points="497.4,695.6 491.5,699.0 491.5,697.6 497.4,694.2" fill="#202020" stroke="#111" stroke-width="0.4" stroke-linejoin="round"/><polygon points="1014.8,628.4 1023.7,639.5 1032.1,650.8 1040.0,662.4 1047.4,674.4 1054.3,686.6 1060.6,699.2 1066.3,712.0 1071.4,725.3 1043.4,741.5 931.1,676.7" fill="#34322e" stroke="#5a3a1a" stroke-width="0.3" stroke-linejoin="round"/><polygon points="1090.6,704.8 1099.5,726.6 1099.5,408.0 1090.6,386.2" fill="#1f9d5b" stroke="#178a4c" stroke-width="0.4" stroke-linejoin="round"/><polygon points="258.9,545.1 820.1,869.1 818.9,869.7 257.7,545.7" fill="#34322e" stroke="#000" stroke-width="0.3" stroke-linejoin="round"/><polygon points="706.7,694.2 594.4,759.0 594.4,744.2 706.7,679.4" fill="#c89f69" stroke="#5a3a1a" stroke-width="0.3" stroke-linejoin="round"/><polygon points="594.4,759.0 482.2,694.2 482.2,679.4 594.4,744.2" fill="#b3854f" stroke="#5a3a1a" stroke-width="0.3" stroke-linejoin="round"/><polygon points="931.1,694.2 818.9,759.0 818.9,744.2 931.1,679.4" fill="#c89f69" stroke="#5a3a1a" stroke-width="0.3" stroke-linejoin="round"/><polygon points="818.9,759.0 706.7,694.2 706.7,679.4 818.9,744.2" fill="#b3854f" stroke="#5a3a1a" stroke-width="0.3" stroke-linejoin="round"/><polygon points="1043.4,759.0 931.1,694.2 931.1,679.4 1043.4,744.2" fill="#b3854f" stroke="#5a3a1a" stroke-width="0.3" stroke-linejoin="round"/><polygon points="257.7,564.6 818.9,888.6 818.9,869.7 257.7,545.7" fill="#191916" stroke="#000" stroke-width="0.3" stroke-linejoin="round"/><polygon points="706.7,679.4 594.4,744.2 594.4,742.2 706.7,677.4" fill="#dcbb84" stroke="#5a3a1a" stroke-width="0.3" stroke-linejoin="round"/><polygon points="594.4,744.2 482.2,679.4 482.2,677.4 594.4,742.2" fill="#c9a871" stroke="#5a3a1a" stroke-width="0.3" stroke-linejoin="round"/><polygon points="931.1,679.4 818.9,744.2 818.9,742.2 931.1,677.4" fill="#dcbb84" stroke="#5a3a1a" stroke-width="0.3" stroke-linejoin="round"/><polygon points="818.9,744.2 706.7,679.4 706.7,677.4 818.9,742.2" fill="#c9a871" stroke="#5a3a1a" stroke-width="0.3" stroke-linejoin="round"/><polygon points="1043.4,744.2 931.1,679.4 931.1,677.4 1043.4,742.2" fill="#c9a871" stroke="#5a3a1a" stroke-width="0.3" stroke-linejoin="round"/><polygon points="706.7,677.4 594.4,742.2 594.4,741.5 706.7,676.7" fill="#262320" stroke="#5a3a1a" stroke-width="0.3" stroke-linejoin="round"/><polygon points="594.4,742.2 482.2,677.4 482.2,676.7 594.4,741.5" fill="#191916" stroke="#5a3a1a" stroke-width="0.3" stroke-linejoin="round"/><polygon points="931.1,677.4 818.9,742.2 818.9,741.5 931.1,676.7" fill="#262320" stroke="#5a3a1a" stroke-width="0.3" stroke-linejoin="round"/><polygon points="818.9,742.2 706.7,677.4 706.7,676.7 818.9,741.5" fill="#191916" stroke="#5a3a1a" stroke-width="0.3" stroke-linejoin="round"/><polygon points="1043.4,742.2 931.1,677.4 931.1,676.7 1043.4,741.5" fill="#191916" stroke="#5a3a1a" stroke-width="0.3" stroke-linejoin="round"/><polygon points="531.3,722.6 545.3,730.7 545.3,719.9 531.3,711.8" fill="#0d0d0d" stroke="#000" stroke-width="0.4" stroke-linejoin="round"/><polygon points="257.7,564.6 818.9,888.6 804.9,896.7 243.7,572.7" fill="#f39c12"/><polygon points="1099.5,726.6 1106.5,749.6 1106.5,431.0 1099.5,408.0" fill="#1f9d5b" stroke="#178a4c" stroke-width="0.4" stroke-linejoin="round"/><polygon points="1071.4,742.8 1043.4,759.0 1043.4,744.2 1071.4,728.0" fill="#c89f69" stroke="#5a3a1a" stroke-width="0.3" stroke-linejoin="round"/><polygon points="1071.4,728.0 1043.4,744.2 1043.4,742.2 1071.4,726.0" fill="#dcbb84" stroke="#5a3a1a" stroke-width="0.3" stroke-linejoin="round"/><polygon points="1071.4,726.0 1043.4,742.2 1043.4,741.5 1071.4,725.3" fill="#262320" stroke="#5a3a1a" stroke-width="0.3" stroke-linejoin="round"/><polygon points="594.4,750.3 600.3,753.6 594.4,757.0 588.6,753.6" fill="#2b2b2b" stroke="#111" stroke-width="0.4" stroke-linejoin="round"/><polygon points="588.6,755.0 594.4,758.4 594.4,757.0 588.6,753.6" fill="#161616" stroke="#111" stroke-width="0.4" stroke-linejoin="round"/><polygon points="600.3,755.0 594.4,758.4 594.4,757.0 600.3,753.6" fill="#202020" stroke="#111" stroke-width="0.4" stroke-linejoin="round"/><polygon points="603.8,755.7 609.6,759.0 603.8,762.4 597.9,759.0" fill="#2b2b2b" stroke="#111" stroke-width="0.4" stroke-linejoin="round"/><polygon points="706.7,676.7 818.9,741.5 706.7,806.3 594.4,741.5" fill="#34322e" stroke="#5a3a1a" stroke-width="0.3" stroke-linejoin="round"/><polygon points="931.1,676.7 1043.4,741.5 931.1,806.3 818.9,741.5" fill="#34322e" stroke="#5a3a1a" stroke-width="0.3" stroke-linejoin="round"/><polygon points="597.9,760.4 603.8,763.8 603.8,762.4 597.9,759.0" fill="#161616" stroke="#111" stroke-width="0.4" stroke-linejoin="round"/><polygon points="609.6,760.4 603.8,763.8 603.8,762.4 609.6,759.0" fill="#202020" stroke="#111" stroke-width="0.4" stroke-linejoin="round"/><polygon points="818.9,759.0 706.7,823.8 706.7,809.0 818.9,744.2" fill="#c89f69" stroke="#5a3a1a" stroke-width="0.3" stroke-linejoin="round"/><polygon points="706.7,823.8 594.4,759.0 594.4,744.2 706.7,809.0" fill="#b3854f" stroke="#5a3a1a" stroke-width="0.3" stroke-linejoin="round"/><polygon points="1043.4,759.0 931.1,823.8 931.1,809.0 1043.4,744.2" fill="#c89f69" stroke="#5a3a1a" stroke-width="0.3" stroke-linejoin="round"/><polygon points="931.1,823.8 818.9,759.0 818.9,744.2 931.1,809.0" fill="#b3854f" stroke="#5a3a1a" stroke-width="0.3" stroke-linejoin="round"/><polygon points="818.9,744.2 706.7,809.0 706.7,807.0 818.9,742.2" fill="#dcbb84" stroke="#5a3a1a" stroke-width="0.3" stroke-linejoin="round"/><polygon points="706.7,809.0 594.4,744.2 594.4,742.2 706.7,807.0" fill="#c9a871" stroke="#5a3a1a" stroke-width="0.3" stroke-linejoin="round"/><polygon points="1043.4,744.2 931.1,809.0 931.1,807.0 1043.4,742.2" fill="#dcbb84" stroke="#5a3a1a" stroke-width="0.3" stroke-linejoin="round"/><polygon points="931.1,809.0 818.9,744.2 818.9,742.2 931.1,807.0" fill="#c9a871" stroke="#5a3a1a" stroke-width="0.3" stroke-linejoin="round"/><polygon points="818.9,742.2 706.7,807.0 706.7,806.3 818.9,741.5" fill="#262320" stroke="#5a3a1a" stroke-width="0.3" stroke-linejoin="round"/><polygon points="706.7,807.0 594.4,742.2 594.4,741.5 706.7,806.3" fill="#191916" stroke="#5a3a1a" stroke-width="0.3" stroke-linejoin="round"/><polygon points="1043.4,742.2 931.1,807.0 931.1,806.3 1043.4,741.5" fill="#262320" stroke="#5a3a1a" stroke-width="0.3" stroke-linejoin="round"/><polygon points="931.1,807.0 818.9,742.2 818.9,741.5 931.1,806.3" fill="#191916" stroke="#5a3a1a" stroke-width="0.3" stroke-linejoin="round"/><polygon points="643.5,787.4 657.6,795.5 657.6,784.7 643.5,776.6" fill="#0d0d0d" stroke="#000" stroke-width="0.4" stroke-linejoin="round"/><polygon points="80.0,591.6 828.2,1023.6 828.2,1023.6 80.0,591.6" fill="#e6e4d9"/><polygon points="706.7,815.1 712.5,818.4 706.7,821.8 700.8,818.4" fill="#2b2b2b" stroke="#111" stroke-width="0.4" stroke-linejoin="round"/><polygon points="700.8,819.8 706.7,823.2 706.7,821.8 700.8,818.4" fill="#161616" stroke="#111" stroke-width="0.4" stroke-linejoin="round"/><polygon points="712.5,819.8 706.7,823.2 706.7,821.8 712.5,818.4" fill="#202020" stroke="#111" stroke-width="0.4" stroke-linejoin="round"/><polygon points="716.0,820.5 721.9,823.8 716.0,827.2 710.2,823.8" fill="#2b2b2b" stroke="#111" stroke-width="0.4" stroke-linejoin="round"/><polygon points="818.9,741.5 931.1,806.3 818.9,871.1 706.7,806.3" fill="#34322e" stroke="#5a3a1a" stroke-width="0.3" stroke-linejoin="round"/><polygon points="710.2,825.2 716.0,828.6 716.0,827.2 710.2,823.8" fill="#161616" stroke="#111" stroke-width="0.4" stroke-linejoin="round"/><polygon points="721.9,825.2 716.0,828.6 716.0,827.2 721.9,823.8" fill="#202020" stroke="#111" stroke-width="0.4" stroke-linejoin="round"/><polygon points="931.1,823.8 818.9,888.6 818.9,873.8 931.1,809.0" fill="#c89f69" stroke="#5a3a1a" stroke-width="0.3" stroke-linejoin="round"/><polygon points="818.9,888.6 706.7,823.8 706.7,809.0 818.9,873.8" fill="#b3854f" stroke="#5a3a1a" stroke-width="0.3" stroke-linejoin="round"/><polygon points="931.1,809.0 818.9,873.8 818.9,871.8 931.1,807.0" fill="#dcbb84" stroke="#5a3a1a" stroke-width="0.3" stroke-linejoin="round"/><polygon points="818.9,873.8 706.7,809.0 706.7,807.0 818.9,871.8" fill="#c9a871" stroke="#5a3a1a" stroke-width="0.3" stroke-linejoin="round"/><polygon points="931.1,807.0 818.9,871.8 818.9,871.1 931.1,806.3" fill="#262320" stroke="#5a3a1a" stroke-width="0.3" stroke-linejoin="round"/><polygon points="818.9,871.8 706.7,807.0 706.7,806.3 818.9,871.1" fill="#191916" stroke="#5a3a1a" stroke-width="0.3" stroke-linejoin="round"/><polygon points="755.8,852.2 769.8,860.3 769.8,849.5 755.8,841.4" fill="#0d0d0d" stroke="#000" stroke-width="0.4" stroke-linejoin="round"/><polygon points="1366.0,713.1 828.2,1023.6 828.2,1023.6 1366.0,713.1" fill="#e9e7dc"/><polygon points="818.9,879.9 824.7,883.2 818.9,886.6 813.0,883.2" fill="#2b2b2b" stroke="#111" stroke-width="0.4" stroke-linejoin="round"/><polygon points="813.0,884.6 818.9,888.0 818.9,886.6 813.0,883.2" fill="#161616" stroke="#111" stroke-width="0.4" stroke-linejoin="round"/><polygon points="824.7,884.6 818.9,888.0 818.9,886.6 824.7,883.2" fill="#202020" stroke="#111" stroke-width="0.4" stroke-linejoin="round"/><polygon points="820.1,888.0 818.9,888.6 818.9,869.7 820.1,869.1" fill="#262320" stroke="#000" stroke-width="0.3" stroke-linejoin="round"/></g></svg>