<?xml version="1.0" encoding="UTF-8"?>
<svg xmlns="http://www.w3.org/2000/svg" viewBox="0 0 1016 710" font-family="Helvetica, Arial, sans-serif"><rect x="0" y="0" width="1016" height="710" fill="#f7f6f1"/><rect x="12" y="12" width="992" height="52" fill="#1a1a1a"/><text x="30" y="38" fill="#f7f6f1" font-size="20" font-weight="700" letter-spacing="1">FIGURE 8 — BUILT CURVED PANEL (3D, panel B3)</text><text x="30" y="56" fill="#cfcfcf" font-size="12.5">Back edge cut to the arc · front edge + tunnel mouth straight · D3 is the mirror</text><g transform="translate(0,64)"><polygon points="404.6,170.1 414.6,175.8 404.6,181.6 394.7,175.8" fill="#2b2b2b" stroke="#111" stroke-width="0.4" stroke-linejoin="round"/><polygon points="394.7,178.1 404.6,183.9 404.6,181.6 394.7,175.8" fill="#161616" stroke="#111" stroke-width="0.4" stroke-linejoin="round"/><polygon points="414.6,178.1 404.6,183.9 404.6,181.6 414.6,175.8" fill="#202020" stroke="#111" stroke-width="0.4" stroke-linejoin="round"/><polygon points="423.3,126.0 444.2,141.5 464.4,157.4 484.0,173.7 502.8,190.5 521.0,207.6 538.4,225.1 555.1,243.1 571.0,261.5 428.5,343.7 237.3,233.3" fill="#34322e" stroke="#5a3a1a" stroke-width="0.4" stroke-linejoin="round"/><polygon points="253.3,257.5 263.2,263.2 253.3,269.0 243.3,263.2" fill="#2b2b2b" stroke="#111" stroke-width="0.4" stroke-linejoin="round"/><polygon points="243.3,265.5 253.3,271.3 253.3,269.0 243.3,263.2" fill="#161616" stroke="#111" stroke-width="0.4" stroke-linejoin="round"/><polygon points="263.2,265.5 253.3,271.3 253.3,269.0 263.2,263.2" fill="#202020" stroke="#111" stroke-width="0.4" stroke-linejoin="round"/><polygon points="540.1,266.7 550.0,272.4 540.1,278.2 530.1,272.4" fill="#2b2b2b" stroke="#111" stroke-width="0.4" stroke-linejoin="round"/><polygon points="530.1,274.7 540.1,280.5 540.1,278.2 530.1,272.4" fill="#161616" stroke="#111" stroke-width="0.4" stroke-linejoin="round"/><polygon points="550.0,274.7 540.1,280.5 540.1,278.2 550.0,272.4" fill="#202020" stroke="#111" stroke-width="0.4" stroke-linejoin="round"/><polygon points="428.5,70.0 946.4,369.0 587.9,576.0 70.0,277.0" fill="#e8e5dc"/><polygon points="428.5,373.6 237.3,263.2 237.3,237.9 428.5,348.3" fill="#b3854f" stroke="#5a3a1a" stroke-width="0.4" stroke-linejoin="round"/><polygon points="428.5,348.3 237.3,237.9 237.3,234.5 428.5,344.9" fill="#c9a871" stroke="#5a3a1a" stroke-width="0.4" stroke-linejoin="round"/><polygon points="428.5,344.9 237.3,234.5 237.3,233.3 428.5,343.7" fill="#191916" stroke="#5a3a1a" stroke-width="0.4" stroke-linejoin="round"/><polygon points="321.0,311.5 344.9,325.3 344.9,306.9 321.0,293.1" fill="#0d0d0d" stroke="#000" stroke-width="0.4" stroke-linejoin="round"/><polygon points="571.0,291.4 428.5,373.6 428.5,348.3 571.0,266.1" fill="#c89f69" stroke="#5a3a1a" stroke-width="0.4" stroke-linejoin="round"/><polygon points="571.0,266.1 428.5,348.3 428.5,344.9 571.0,262.6" fill="#dcbb84" stroke="#5a3a1a" stroke-width="0.4" stroke-linejoin="round"/><polygon points="571.0,262.6 428.5,344.9 428.5,343.7 571.0,261.5" fill="#262320" stroke="#5a3a1a" stroke-width="0.4" stroke-linejoin="round"/><polygon points="428.5,358.7 438.5,364.4 428.5,370.2 418.6,364.4" fill="#2b2b2b" stroke="#111" stroke-width="0.4" stroke-linejoin="round"/><polygon points="418.6,366.7 428.5,372.5 428.5,370.2 418.6,364.4" fill="#161616" stroke="#111" stroke-width="0.4" stroke-linejoin="round"/><polygon points="438.5,366.7 428.5,372.5 428.5,370.2 438.5,364.4" fill="#202020" stroke="#111" stroke-width="0.4" stroke-linejoin="round"/><polygon points="70.0,277.0 587.9,576.0 587.9,576.0 70.0,277.0" fill="#e0ddd4"/><polygon points="946.4,369.0 587.9,576.0 587.9,576.0 946.4,369.0" fill="#e4e1d8"/></g></svg>