<?xml version="1.0" encoding="UTF-8"?>
<svg xmlns="http://www.w3.org/2000/svg" viewBox="0 0 1399 940" font-family="Helvetica, Arial, sans-serif"><rect x="0" y="0" width="1399" height="940" fill="#f7f6f1"/><rect x="12" y="12" width="1375" height="52" fill="#1a1a1a"/><text x="30" y="38" fill="#f7f6f1" font-size="20" font-weight="700" letter-spacing="1">FIGURE 10 — OVERALL FRAME OF THE ENTIRE STAGE (3D)</text><text x="30" y="56" fill="#cfcfcf" font-size="12.5">All 15 panel frames, decks removed · perimeter + tunnel rails · Row 3 backs cut to the arc · blocking omitted for clarity</text><g transform="translate(0,64)"><polygon points="529.7,195.7 506.7,192.8 506.7,177.9 529.7,180.8" fill="#b3854f" stroke="#5a3a1a" stroke-width="0.3" stroke-linejoin="round"/><polygon points="552.0,199.0 529.7,195.7 529.7,180.8 552.0,184.2" fill="#b3854f" stroke="#5a3a1a" stroke-width="0.3" stroke-linejoin="round"/><polygon points="511.4,175.2 514.9,177.2 489.2,192.1 485.7,190.1" fill="#dcb789" stroke="#5a3a1a" stroke-width="0.3" stroke-linejoin="round"/><polygon points="514.9,192.1 489.2,206.9 489.2,192.1 514.9,177.2" fill="#c89f69" stroke="#5a3a1a" stroke-width="0.3" stroke-linejoin="round"/><polygon points="573.8,202.7 552.0,199.0 552.0,184.2 573.8,187.8" fill="#b3854f" stroke="#5a3a1a" stroke-width="0.3" stroke-linejoin="round"/><polygon points="594.9,206.6 573.8,202.7 573.8,187.8 594.9,191.8" fill="#b3854f" stroke="#5a3a1a" stroke-width="0.3" stroke-linejoin="round"/><polygon points="485.7,204.9 489.2,206.9 489.2,192.1 485.7,190.1" fill="#b3854f" stroke="#5a3a1a" stroke-width="0.3" stroke-linejoin="round"/><polygon points="674.5,210.6 655.4,205.5 635.7,200.6 615.6,196.1 594.9,191.8 573.8,187.8 552.0,184.2 529.7,180.8 506.7,177.9 510.2,175.9 533.2,178.8 555.5,182.1 577.3,185.8 598.5,189.7 619.1,194.0 639.2,198.6 658.9,203.5 678.1,208.6" fill="#dcb789" stroke="#5a3a1a" stroke-width="0.3" stroke-linejoin="round"/><polygon points="615.6,210.9 594.9,206.6 594.9,191.8 615.6,196.1" fill="#b3854f" stroke="#5a3a1a" stroke-width="0.3" stroke-linejoin="round"/><polygon points="635.7,215.5 615.6,210.9 615.6,196.1 635.7,200.6" fill="#b3854f" stroke="#5a3a1a" stroke-width="0.3" stroke-linejoin="round"/><polygon points="583.5,186.2 587.0,188.2 534.8,218.4 531.3,216.4" fill="#dcb789" stroke="#5a3a1a" stroke-width="0.3" stroke-linejoin="round"/><polygon points="655.4,220.3 635.7,215.5 635.7,200.6 655.4,205.5" fill="#b3854f" stroke="#5a3a1a" stroke-width="0.3" stroke-linejoin="round"/><polygon points="587.0,203.1 534.8,233.3 534.8,218.4 587.0,188.2" fill="#c89f69" stroke="#5a3a1a" stroke-width="0.3" stroke-linejoin="round"/><polygon points="674.5,225.5 655.4,220.3 655.4,205.5 674.5,210.6" fill="#b3854f" stroke="#5a3a1a" stroke-width="0.3" stroke-linejoin="round"/><polygon points="678.1,223.4 674.5,225.5 674.5,210.6 678.1,208.6" fill="#c89f69" stroke="#5a3a1a" stroke-width="0.3" stroke-linejoin="round"/><polygon points="609.7,191.4 613.2,193.4 552.3,228.5 548.8,226.5" fill="#dcb789" stroke="#5a3a1a" stroke-width="0.3" stroke-linejoin="round"/><polygon points="613.2,208.3 552.3,243.4 552.3,228.5 613.2,193.4" fill="#c89f69" stroke="#5a3a1a" stroke-width="0.3" stroke-linejoin="round"/><polygon points="693.3,230.9 674.5,225.5 674.5,210.6 693.3,216.0" fill="#b3854f" stroke="#5a3a1a" stroke-width="0.3" stroke-linejoin="round"/><polygon points="531.3,231.2 534.8,233.3 534.8,218.4 531.3,216.4" fill="#b3854f" stroke="#5a3a1a" stroke-width="0.3" stroke-linejoin="round"/><polygon points="711.5,236.5 693.3,230.9 693.3,216.0 711.5,221.7" fill="#b3854f" stroke="#5a3a1a" stroke-width="0.3" stroke-linejoin="round"/><polygon points="485.7,190.1 597.9,254.9 594.4,256.9 482.2,192.1" fill="#dcb789" stroke="#5a3a1a" stroke-width="0.3" stroke-linejoin="round"/><polygon points="482.2,206.9 594.4,271.7 594.4,256.9 482.2,192.1" fill="#b3854f" stroke="#5a3a1a" stroke-width="0.3" stroke-linejoin="round"/><polygon points="729.4,242.4 711.5,236.5 711.5,221.7 729.4,227.6" fill="#b3854f" stroke="#5a3a1a" stroke-width="0.3" stroke-linejoin="round"/><polygon points="482.2,192.1 594.4,256.9 590.9,258.9 478.7,194.1" fill="#dcb789" stroke="#5a3a1a" stroke-width="0.3" stroke-linejoin="round"/><polygon points="478.7,194.1 482.2,196.1 377.0,256.9 373.5,254.9" fill="#dcb789" stroke="#5a3a1a" stroke-width="0.3" stroke-linejoin="round"/><polygon points="478.7,209.0 590.9,273.8 590.9,258.9 478.7,194.1" fill="#b3854f" stroke="#5a3a1a" stroke-width="0.3" stroke-linejoin="round"/><polygon points="482.2,211.0 377.0,271.7 377.0,256.9 482.2,196.1" fill="#c89f69" stroke="#5a3a1a" stroke-width="0.3" stroke-linejoin="round"/><polygon points="548.8,241.4 552.3,243.4 552.3,228.5 548.8,226.5" fill="#b3854f" stroke="#5a3a1a" stroke-width="0.3" stroke-linejoin="round"/><polygon points="746.8,248.6 729.4,242.4 729.4,227.6 746.8,233.7" fill="#b3854f" stroke="#5a3a1a" stroke-width="0.3" stroke-linejoin="round"/><polygon points="673.9,206.9 677.4,208.9 597.9,254.9 594.4,252.8" fill="#dcb789" stroke="#5a3a1a" stroke-width="0.3" stroke-linejoin="round"/><polygon points="677.4,223.8 597.9,269.7 597.9,254.9 677.4,208.9" fill="#c89f69" stroke="#5a3a1a" stroke-width="0.3" stroke-linejoin="round"/><polygon points="678.7,208.2 682.2,210.3 601.4,256.9 597.9,254.9" fill="#dcb789" stroke="#5a3a1a" stroke-width="0.3" stroke-linejoin="round"/><polygon points="812.3,260.7 796.5,253.6 780.3,246.7 763.7,240.1 746.8,233.7 729.4,227.6 711.5,221.7 693.3,216.0 674.5,210.6 678.1,208.6 696.8,214.0 715.0,219.6 732.9,225.5 750.3,231.7 767.3,238.1 783.8,244.7 800.0,251.6 815.8,258.7" fill="#dcb789" stroke="#5a3a1a" stroke-width="0.3" stroke-linejoin="round"/><polygon points="682.2,225.1 601.4,271.7 601.4,256.9 682.2,210.3" fill="#c89f69" stroke="#5a3a1a" stroke-width="0.3" stroke-linejoin="round"/><polygon points="763.7,255.0 746.8,248.6 746.8,233.7 763.7,240.1" fill="#b3854f" stroke="#5a3a1a" stroke-width="0.3" stroke-linejoin="round"/><polygon points="780.3,261.6 763.7,255.0 763.7,240.1 780.3,246.7" fill="#b3854f" stroke="#5a3a1a" stroke-width="0.3" stroke-linejoin="round"/><polygon points="796.5,268.5 780.3,261.6 780.3,246.7 796.5,253.6" fill="#b3854f" stroke="#5a3a1a" stroke-width="0.3" stroke-linejoin="round"/><polygon points="524.3,220.4 527.8,222.5 422.6,283.2 419.0,281.2" fill="#dcb789" stroke="#5a3a1a" stroke-width="0.3" stroke-linejoin="round"/><polygon points="527.8,237.3 422.6,298.1 422.6,283.2 527.8,222.5" fill="#c89f69" stroke="#5a3a1a" stroke-width="0.3" stroke-linejoin="round"/><polygon points="594.4,267.7 597.9,269.7 597.9,254.9 594.4,252.8" fill="#b3854f" stroke="#5a3a1a" stroke-width="0.3" stroke-linejoin="round"/><polygon points="737.7,226.8 741.2,228.8 647.0,283.2 643.5,281.2" fill="#dcb789" stroke="#5a3a1a" stroke-width="0.3" stroke-linejoin="round"/><polygon points="373.5,269.7 377.0,271.7 377.0,256.9 373.5,254.9" fill="#b3854f" stroke="#5a3a1a" stroke-width="0.3" stroke-linejoin="round"/><polygon points="597.9,269.7 594.4,271.7 594.4,256.9 597.9,254.9" fill="#c89f69" stroke="#5a3a1a" stroke-width="0.3" stroke-linejoin="round"/><polygon points="597.9,269.7 601.4,271.7 601.4,256.9 597.9,254.9" fill="#b3854f" stroke="#5a3a1a" stroke-width="0.3" stroke-linejoin="round"/><polygon points="741.2,243.7 647.0,298.1 647.0,283.2 741.2,228.8" fill="#c89f69" stroke="#5a3a1a" stroke-width="0.3" stroke-linejoin="round"/><polygon points="812.3,275.5 796.5,268.5 796.5,253.6 812.3,260.7" fill="#b3854f" stroke="#5a3a1a" stroke-width="0.3" stroke-linejoin="round"/><polygon points="594.4,271.7 590.9,273.8 590.9,258.9 594.4,256.9" fill="#c89f69" stroke="#5a3a1a" stroke-width="0.3" stroke-linejoin="round"/><polygon points="815.8,273.5 812.3,275.5 812.3,260.7 815.8,258.7" fill="#c89f69" stroke="#5a3a1a" stroke-width="0.3" stroke-linejoin="round"/><polygon points="541.8,230.6 545.3,232.6 440.1,293.3 436.6,291.3" fill="#dcb789" stroke="#5a3a1a" stroke-width="0.3" stroke-linejoin="round"/><polygon points="545.3,247.4 440.1,308.2 440.1,293.3 545.3,232.6" fill="#c89f69" stroke="#5a3a1a" stroke-width="0.3" stroke-linejoin="round"/><polygon points="759.2,234.7 762.7,236.7 664.6,293.3 661.1,291.3" fill="#dcb789" stroke="#5a3a1a" stroke-width="0.3" stroke-linejoin="round"/><polygon points="827.7,282.9 812.3,275.5 812.3,260.7 827.7,268.0" fill="#b3854f" stroke="#5a3a1a" stroke-width="0.3" stroke-linejoin="round"/><polygon points="762.7,251.5 664.6,308.2 664.6,293.3 762.7,236.7" fill="#c89f69" stroke="#5a3a1a" stroke-width="0.3" stroke-linejoin="round"/><polygon points="842.7,290.4 827.7,282.9 827.7,268.0 842.7,275.5" fill="#b3854f" stroke="#5a3a1a" stroke-width="0.3" stroke-linejoin="round"/><polygon points="857.3,298.2 842.7,290.4 842.7,275.5 857.3,283.3" fill="#b3854f" stroke="#5a3a1a" stroke-width="0.3" stroke-linejoin="round"/><polygon points="419.0,296.0 422.6,298.1 422.6,283.2 419.0,281.2" fill="#b3854f" stroke="#5a3a1a" stroke-width="0.3" stroke-linejoin="round"/><polygon points="643.5,296.0 647.0,298.1 647.0,283.2 643.5,281.2" fill="#b3854f" stroke="#5a3a1a" stroke-width="0.3" stroke-linejoin="round"/><polygon points="871.5,306.2 857.3,298.2 857.3,283.3 871.5,291.3" fill="#b3854f" stroke="#5a3a1a" stroke-width="0.3" stroke-linejoin="round"/><polygon points="812.1,256.8 815.6,258.8 710.2,319.7 706.7,317.6" fill="#dcb789" stroke="#5a3a1a" stroke-width="0.3" stroke-linejoin="round"/><polygon points="373.5,254.9 485.7,319.7 482.2,321.7 369.9,256.9" fill="#dcb789" stroke="#5a3a1a" stroke-width="0.3" stroke-linejoin="round"/><polygon points="587.4,256.9 590.9,258.9 485.7,319.7 482.2,317.6" fill="#dcb789" stroke="#5a3a1a" stroke-width="0.3" stroke-linejoin="round"/><polygon points="597.9,254.9 710.2,319.7 706.7,321.7 594.4,256.9" fill="#dcb789" stroke="#5a3a1a" stroke-width="0.3" stroke-linejoin="round"/><polygon points="815.6,273.6 710.2,334.5 710.2,319.7 815.6,258.8" fill="#c89f69" stroke="#5a3a1a" stroke-width="0.3" stroke-linejoin="round"/><polygon points="369.9,271.7 482.2,336.5 482.2,321.7 369.9,256.9" fill="#b3854f" stroke="#5a3a1a" stroke-width="0.3" stroke-linejoin="round"/><polygon points="590.9,273.8 485.7,334.5 485.7,319.7 590.9,258.9" fill="#c89f69" stroke="#5a3a1a" stroke-width="0.3" stroke-linejoin="round"/><polygon points="594.4,271.7 706.7,336.5 706.7,321.7 594.4,256.9" fill="#b3854f" stroke="#5a3a1a" stroke-width="0.3" stroke-linejoin="round"/><polygon points="816.0,258.6 819.5,260.6 713.7,321.7 710.2,319.7" fill="#dcb789" stroke="#5a3a1a" stroke-width="0.3" stroke-linejoin="round"/><polygon points="369.9,256.9 482.2,321.7 478.7,323.7 366.4,258.9" fill="#dcb789" stroke="#5a3a1a" stroke-width="0.3" stroke-linejoin="round"/><polygon points="366.4,258.9 369.9,260.9 264.7,321.7 261.2,319.7" fill="#dcb789" stroke="#5a3a1a" stroke-width="0.3" stroke-linejoin="round"/><polygon points="594.4,256.9 706.7,321.7 703.1,323.7 590.9,258.9" fill="#dcb789" stroke="#5a3a1a" stroke-width="0.3" stroke-linejoin="round"/><polygon points="590.9,258.9 594.4,260.9 489.2,321.7 485.7,319.7" fill="#dcb789" stroke="#5a3a1a" stroke-width="0.3" stroke-linejoin="round"/><polygon points="924.5,325.5 911.9,316.6 898.8,307.9 885.3,299.5 871.5,291.3 857.3,283.3 842.7,275.5 827.7,268.0 812.3,260.7 815.8,258.7 831.2,266.0 846.2,273.5 860.8,281.3 875.0,289.3 888.8,297.5 902.3,305.9 915.4,314.6 928.0,323.5" fill="#dcb789" stroke="#5a3a1a" stroke-width="0.3" stroke-linejoin="round"/><polygon points="819.5,275.4 713.7,336.5 713.7,321.7 819.5,260.6" fill="#c89f69" stroke="#5a3a1a" stroke-width="0.3" stroke-linejoin="round"/><polygon points="366.4,273.8 478.7,338.6 478.7,323.7 366.4,258.9" fill="#b3854f" stroke="#5a3a1a" stroke-width="0.3" stroke-linejoin="round"/><polygon points="369.9,275.8 264.7,336.5 264.7,321.7 369.9,260.9" fill="#c89f69" stroke="#5a3a1a" stroke-width="0.3" stroke-linejoin="round"/><polygon points="590.9,273.8 703.1,338.6 703.1,323.7 590.9,258.9" fill="#b3854f" stroke="#5a3a1a" stroke-width="0.3" stroke-linejoin="round"/><polygon points="594.4,275.8 489.2,336.5 489.2,321.7 594.4,260.9" fill="#c89f69" stroke="#5a3a1a" stroke-width="0.3" stroke-linejoin="round"/><polygon points="436.6,306.2 440.1,308.2 440.1,293.3 436.6,291.3" fill="#b3854f" stroke="#5a3a1a" stroke-width="0.3" stroke-linejoin="round"/><polygon points="661.1,306.2 664.6,308.2 664.6,293.3 661.1,291.3" fill="#b3854f" stroke="#5a3a1a" stroke-width="0.3" stroke-linejoin="round"/><polygon points="885.3,314.4 871.5,306.2 871.5,291.3 885.3,299.5" fill="#b3854f" stroke="#5a3a1a" stroke-width="0.3" stroke-linejoin="round"/><polygon points="898.8,322.8 885.3,314.4 885.3,299.5 898.8,307.9" fill="#b3854f" stroke="#5a3a1a" stroke-width="0.3" stroke-linejoin="round"/><polygon points="911.9,331.5 898.8,322.8 898.8,307.9 911.9,316.6" fill="#b3854f" stroke="#5a3a1a" stroke-width="0.3" stroke-linejoin="round"/><polygon points="864.4,283.2 867.9,285.3 759.3,348.0 755.8,346.0" fill="#dcb789" stroke="#5a3a1a" stroke-width="0.3" stroke-linejoin="round"/><polygon points="412.0,285.2 415.5,287.3 310.3,348.0 306.8,346.0" fill="#dcb789" stroke="#5a3a1a" stroke-width="0.3" stroke-linejoin="round"/><polygon points="636.5,285.2 640.0,287.3 534.8,348.0 531.3,346.0" fill="#dcb789" stroke="#5a3a1a" stroke-width="0.3" stroke-linejoin="round"/><polygon points="867.9,300.1 759.3,362.9 759.3,348.0 867.9,285.3" fill="#c89f69" stroke="#5a3a1a" stroke-width="0.3" stroke-linejoin="round"/><polygon points="415.5,302.1 310.3,362.9 310.3,348.0 415.5,287.3" fill="#c89f69" stroke="#5a3a1a" stroke-width="0.3" stroke-linejoin="round"/><polygon points="640.0,302.1 534.8,362.9 534.8,348.0 640.0,287.3" fill="#c89f69" stroke="#5a3a1a" stroke-width="0.3" stroke-linejoin="round"/><polygon points="482.2,332.5 485.7,334.5 485.7,319.7 482.2,317.6" fill="#b3854f" stroke="#5a3a1a" stroke-width="0.3" stroke-linejoin="round"/><polygon points="706.7,332.5 710.2,334.5 710.2,319.7 706.7,317.6" fill="#b3854f" stroke="#5a3a1a" stroke-width="0.3" stroke-linejoin="round"/><polygon points="261.2,334.5 264.7,336.5 264.7,321.7 261.2,319.7" fill="#b3854f" stroke="#5a3a1a" stroke-width="0.3" stroke-linejoin="round"/><polygon points="485.7,334.5 482.2,336.5 482.2,321.7 485.7,319.7" fill="#c89f69" stroke="#5a3a1a" stroke-width="0.3" stroke-linejoin="round"/><polygon points="485.7,334.5 489.2,336.5 489.2,321.7 485.7,319.7" fill="#b3854f" stroke="#5a3a1a" stroke-width="0.3" stroke-linejoin="round"/><polygon points="710.2,334.5 706.7,336.5 706.7,321.7 710.2,319.7" fill="#c89f69" stroke="#5a3a1a" stroke-width="0.3" stroke-linejoin="round"/><polygon points="710.2,334.5 713.7,336.5 713.7,321.7 710.2,319.7" fill="#b3854f" stroke="#5a3a1a" stroke-width="0.3" stroke-linejoin="round"/><polygon points="924.5,340.3 911.9,331.5 911.9,316.6 924.5,325.5" fill="#b3854f" stroke="#5a3a1a" stroke-width="0.3" stroke-linejoin="round"/><polygon points="482.2,336.5 478.7,338.6 478.7,323.7 482.2,321.7" fill="#c89f69" stroke="#5a3a1a" stroke-width="0.3" stroke-linejoin="round"/><polygon points="706.7,336.5 703.1,338.6 703.1,323.7 706.7,321.7" fill="#c89f69" stroke="#5a3a1a" stroke-width="0.3" stroke-linejoin="round"/><polygon points="928.0,338.3 924.5,340.3 924.5,325.5 928.0,323.5" fill="#c89f69" stroke="#5a3a1a" stroke-width="0.3" stroke-linejoin="round"/><polygon points="882.0,293.4 885.5,295.4 776.8,358.1 773.3,356.1" fill="#dcb789" stroke="#5a3a1a" stroke-width="0.3" stroke-linejoin="round"/><polygon points="429.6,295.4 433.1,297.4 327.9,358.1 324.3,356.1" fill="#dcb789" stroke="#5a3a1a" stroke-width="0.3" stroke-linejoin="round"/><polygon points="654.0,295.4 657.6,297.4 552.3,358.1 548.8,356.1" fill="#dcb789" stroke="#5a3a1a" stroke-width="0.3" stroke-linejoin="round"/><polygon points="885.5,310.2 776.8,373.0 776.8,358.1 885.5,295.4" fill="#c89f69" stroke="#5a3a1a" stroke-width="0.3" stroke-linejoin="round"/><polygon points="433.1,312.2 327.9,373.0 327.9,358.1 433.1,297.4" fill="#c89f69" stroke="#5a3a1a" stroke-width="0.3" stroke-linejoin="round"/><polygon points="657.6,312.2 552.3,373.0 552.3,358.1 657.6,297.4" fill="#c89f69" stroke="#5a3a1a" stroke-width="0.3" stroke-linejoin="round"/><polygon points="936.8,349.5 924.5,340.3 924.5,325.5 936.8,334.6" fill="#b3854f" stroke="#5a3a1a" stroke-width="0.3" stroke-linejoin="round"/><polygon points="948.7,358.8 936.8,349.5 936.8,334.6 948.7,343.9" fill="#b3854f" stroke="#5a3a1a" stroke-width="0.3" stroke-linejoin="round"/><polygon points="306.8,360.8 310.3,362.9 310.3,348.0 306.8,346.0" fill="#b3854f" stroke="#5a3a1a" stroke-width="0.3" stroke-linejoin="round"/><polygon points="531.3,360.8 534.8,362.9 534.8,348.0 531.3,346.0" fill="#b3854f" stroke="#5a3a1a" stroke-width="0.3" stroke-linejoin="round"/><polygon points="755.8,360.8 759.3,362.9 759.3,348.0 755.8,346.0" fill="#b3854f" stroke="#5a3a1a" stroke-width="0.3" stroke-linejoin="round"/><polygon points="960.2,368.4 948.7,358.8 948.7,343.9 960.2,353.5" fill="#b3854f" stroke="#5a3a1a" stroke-width="0.3" stroke-linejoin="round"/><polygon points="924.7,321.3 928.2,323.4 822.4,384.5 818.9,382.4" fill="#dcb789" stroke="#5a3a1a" stroke-width="0.3" stroke-linejoin="round"/><polygon points="261.2,319.7 373.5,384.5 369.9,386.5 257.7,321.7" fill="#dcb789" stroke="#5a3a1a" stroke-width="0.3" stroke-linejoin="round"/><polygon points="475.2,321.7 478.7,323.7 373.5,384.5 369.9,382.4" fill="#dcb789" stroke="#5a3a1a" stroke-width="0.3" stroke-linejoin="round"/><polygon points="485.7,319.7 597.9,384.5 594.4,386.5 482.2,321.7" fill="#dcb789" stroke="#5a3a1a" stroke-width="0.3" stroke-linejoin="round"/><polygon points="699.6,321.7 703.1,323.7 597.9,384.5 594.4,382.4" fill="#dcb789" stroke="#5a3a1a" stroke-width="0.3" stroke-linejoin="round"/><polygon points="710.2,319.7 822.4,384.5 818.9,386.5 706.7,321.7" fill="#dcb789" stroke="#5a3a1a" stroke-width="0.3" stroke-linejoin="round"/><polygon points="928.2,338.2 822.4,399.3 822.4,384.5 928.2,323.4" fill="#c89f69" stroke="#5a3a1a" stroke-width="0.3" stroke-linejoin="round"/><polygon points="257.7,336.5 369.9,401.3 369.9,386.5 257.7,321.7" fill="#b3854f" stroke="#5a3a1a" stroke-width="0.3" stroke-linejoin="round"/><polygon points="478.7,338.6 373.5,399.3 373.5,384.5 478.7,323.7" fill="#c89f69" stroke="#5a3a1a" stroke-width="0.3" stroke-linejoin="round"/><polygon points="482.2,336.5 594.4,401.3 594.4,386.5 482.2,321.7" fill="#b3854f" stroke="#5a3a1a" stroke-width="0.3" stroke-linejoin="round"/><polygon points="703.1,338.6 597.9,399.3 597.9,384.5 703.1,323.7" fill="#c89f69" stroke="#5a3a1a" stroke-width="0.3" stroke-linejoin="round"/><polygon points="706.7,336.5 818.9,401.3 818.9,386.5 706.7,321.7" fill="#b3854f" stroke="#5a3a1a" stroke-width="0.3" stroke-linejoin="round"/><polygon points="927.8,323.6 931.3,325.6 825.9,386.5 822.4,384.5" fill="#dcb789" stroke="#5a3a1a" stroke-width="0.3" stroke-linejoin="round"/><polygon points="482.2,321.7 594.4,386.5 590.9,388.5 478.7,323.7" fill="#dcb789" stroke="#5a3a1a" stroke-width="0.3" stroke-linejoin="round"/><polygon points="478.7,323.7 482.2,325.7 377.0,386.5 373.5,384.5" fill="#dcb789" stroke="#5a3a1a" stroke-width="0.3" stroke-linejoin="round"/><polygon points="706.7,321.7 818.9,386.5 815.4,388.5 703.1,323.7" fill="#dcb789" stroke="#5a3a1a" stroke-width="0.3" stroke-linejoin="round"/><polygon points="703.1,323.7 706.7,325.7 601.4,386.5 597.9,384.5" fill="#dcb789" stroke="#5a3a1a" stroke-width="0.3" stroke-linejoin="round"/><polygon points="931.3,340.5 825.9,401.3 825.9,386.5 931.3,325.6" fill="#c89f69" stroke="#5a3a1a" stroke-width="0.3" stroke-linejoin="round"/><polygon points="478.7,338.6 590.9,403.4 590.9,388.5 478.7,323.7" fill="#b3854f" stroke="#5a3a1a" stroke-width="0.3" stroke-linejoin="round"/><polygon points="482.2,340.6 377.0,401.3 377.0,386.5 482.2,325.7" fill="#c89f69" stroke="#5a3a1a" stroke-width="0.3" stroke-linejoin="round"/><polygon points="703.1,338.6 815.4,403.4 815.4,388.5 703.1,323.7" fill="#b3854f" stroke="#5a3a1a" stroke-width="0.3" stroke-linejoin="round"/><polygon points="706.7,340.6 601.4,401.3 601.4,386.5 706.7,325.7" fill="#c89f69" stroke="#5a3a1a" stroke-width="0.3" stroke-linejoin="round"/><polygon points="324.3,371.0 327.9,373.0 327.9,358.1 324.3,356.1" fill="#b3854f" stroke="#5a3a1a" stroke-width="0.3" stroke-linejoin="round"/><polygon points="548.8,371.0 552.3,373.0 552.3,358.1 548.8,356.1" fill="#b3854f" stroke="#5a3a1a" stroke-width="0.3" stroke-linejoin="round"/><polygon points="773.3,371.0 776.8,373.0 776.8,358.1 773.3,356.1" fill="#b3854f" stroke="#5a3a1a" stroke-width="0.3" stroke-linejoin="round"/><polygon points="971.2,378.2 960.2,368.4 960.2,353.5 971.2,363.3" fill="#b3854f" stroke="#5a3a1a" stroke-width="0.3" stroke-linejoin="round"/><polygon points="1011.3,405.0 1001.9,394.2 992.1,383.7 981.9,373.4 971.2,363.3 960.2,353.5 948.7,343.9 936.8,334.6 924.5,325.5 928.0,323.5 940.3,332.6 952.2,341.9 963.7,351.5 974.7,361.3 985.4,371.3 995.6,381.6 1005.4,392.2 1014.8,403.0" fill="#dcb789" stroke="#5a3a1a" stroke-width="0.3" stroke-linejoin="round"/><polygon points="981.9,388.2 971.2,378.2 971.2,363.3 981.9,373.4" fill="#b3854f" stroke="#5a3a1a" stroke-width="0.3" stroke-linejoin="round"/><polygon points="992.1,398.5 981.9,388.2 981.9,373.4 992.1,383.7" fill="#b3854f" stroke="#5a3a1a" stroke-width="0.3" stroke-linejoin="round"/><polygon points="524.3,350.0 527.8,352.1 422.6,412.8 419.0,410.8" fill="#dcb789" stroke="#5a3a1a" stroke-width="0.3" stroke-linejoin="round"/><polygon points="748.7,350.0 752.3,352.1 647.0,412.8 643.5,410.8" fill="#dcb789" stroke="#5a3a1a" stroke-width="0.3" stroke-linejoin="round"/><polygon points="527.8,366.9 422.6,427.7 422.6,412.8 527.8,352.1" fill="#c89f69" stroke="#5a3a1a" stroke-width="0.3" stroke-linejoin="round"/><polygon points="752.3,366.9 647.0,427.7 647.0,412.8 752.3,352.1" fill="#c89f69" stroke="#5a3a1a" stroke-width="0.3" stroke-linejoin="round"/><polygon points="369.9,397.3 373.5,399.3 373.5,384.5 369.9,382.4" fill="#b3854f" stroke="#5a3a1a" stroke-width="0.3" stroke-linejoin="round"/><polygon points="594.4,397.3 597.9,399.3 597.9,384.5 594.4,382.4" fill="#b3854f" stroke="#5a3a1a" stroke-width="0.3" stroke-linejoin="round"/><polygon points="818.9,397.3 822.4,399.3 822.4,384.5 818.9,382.4" fill="#b3854f" stroke="#5a3a1a" stroke-width="0.3" stroke-linejoin="round"/><polygon points="966.1,354.1 969.6,356.2 871.5,412.8 868.0,410.8" fill="#dcb789" stroke="#5a3a1a" stroke-width="0.3" stroke-linejoin="round"/><polygon points="969.6,371.0 871.5,427.7 871.5,412.8 969.6,356.2" fill="#c89f69" stroke="#5a3a1a" stroke-width="0.3" stroke-linejoin="round"/><polygon points="373.5,399.3 369.9,401.3 369.9,386.5 373.5,384.5" fill="#c89f69" stroke="#5a3a1a" stroke-width="0.3" stroke-linejoin="round"/><polygon points="373.5,399.3 377.0,401.3 377.0,386.5 373.5,384.5" fill="#b3854f" stroke="#5a3a1a" stroke-width="0.3" stroke-linejoin="round"/><polygon points="597.9,399.3 594.4,401.3 594.4,386.5 597.9,384.5" fill="#c89f69" stroke="#5a3a1a" stroke-width="0.3" stroke-linejoin="round"/><polygon points="597.9,399.3 601.4,401.3 601.4,386.5 597.9,384.5" fill="#b3854f" stroke="#5a3a1a" stroke-width="0.3" stroke-linejoin="round"/><polygon points="822.4,399.3 818.9,401.3 818.9,386.5 822.4,384.5" fill="#c89f69" stroke="#5a3a1a" stroke-width="0.3" stroke-linejoin="round"/><polygon points="822.4,399.3 825.9,401.3 825.9,386.5 822.4,384.5" fill="#b3854f" stroke="#5a3a1a" stroke-width="0.3" stroke-linejoin="round"/><polygon points="594.4,401.3 590.9,403.4 590.9,388.5 594.4,386.5" fill="#c89f69" stroke="#5a3a1a" stroke-width="0.3" stroke-linejoin="round"/><polygon points="818.9,401.3 815.4,403.4 815.4,388.5 818.9,386.5" fill="#c89f69" stroke="#5a3a1a" stroke-width="0.3" stroke-linejoin="round"/><polygon points="1001.9,409.1 992.1,398.5 992.1,383.7 1001.9,394.2" fill="#b3854f" stroke="#5a3a1a" stroke-width="0.3" stroke-linejoin="round"/><polygon points="541.8,360.2 545.3,362.2 440.1,422.9 436.6,420.9" fill="#dcb789" stroke="#5a3a1a" stroke-width="0.3" stroke-linejoin="round"/><polygon points="766.3,360.2 769.8,362.2 664.6,422.9 661.1,420.9" fill="#dcb789" stroke="#5a3a1a" stroke-width="0.3" stroke-linejoin="round"/><polygon points="545.3,377.0 440.1,437.8 440.1,422.9 545.3,362.2" fill="#c89f69" stroke="#5a3a1a" stroke-width="0.3" stroke-linejoin="round"/><polygon points="769.8,377.0 664.6,437.8 664.6,422.9 769.8,362.2" fill="#c89f69" stroke="#5a3a1a" stroke-width="0.3" stroke-linejoin="round"/><polygon points="979.7,366.5 983.2,368.6 889.0,422.9 885.5,420.9" fill="#dcb789" stroke="#5a3a1a" stroke-width="0.3" stroke-linejoin="round"/><polygon points="983.2,383.4 889.0,437.8 889.0,422.9 983.2,368.6" fill="#c89f69" stroke="#5a3a1a" stroke-width="0.3" stroke-linejoin="round"/><polygon points="1011.3,419.9 1001.9,409.1 1001.9,394.2 1011.3,405.0" fill="#b3854f" stroke="#5a3a1a" stroke-width="0.3" stroke-linejoin="round"/><polygon points="1014.8,417.8 1011.3,419.9 1011.3,405.0 1014.8,403.0" fill="#c89f69" stroke="#5a3a1a" stroke-width="0.3" stroke-linejoin="round"/><polygon points="1020.1,430.9 1011.3,419.9 1011.3,405.0 1020.1,416.1" fill="#b3854f" stroke="#5a3a1a" stroke-width="0.3" stroke-linejoin="round"/><polygon points="419.0,425.6 422.6,427.7 422.6,412.8 419.0,410.8" fill="#b3854f" stroke="#5a3a1a" stroke-width="0.3" stroke-linejoin="round"/><polygon points="643.5,425.6 647.0,427.7 647.0,412.8 643.5,410.8" fill="#b3854f" stroke="#5a3a1a" stroke-width="0.3" stroke-linejoin="round"/><polygon points="868.0,425.6 871.5,427.7 871.5,412.8 868.0,410.8" fill="#b3854f" stroke="#5a3a1a" stroke-width="0.3" stroke-linejoin="round"/><polygon points="571.0,80.0 1319.3,512.0 828.2,795.5 80.0,363.5" fill="#eceadf"/><polygon points="373.5,384.5 485.7,449.3 482.2,451.3 369.9,386.5" fill="#dcb789" stroke="#5a3a1a" stroke-width="0.3" stroke-linejoin="round"/><polygon points="587.4,386.5 590.9,388.5 485.7,449.3 482.2,447.2" fill="#dcb789" stroke="#5a3a1a" stroke-width="0.3" stroke-linejoin="round"/><polygon points="597.9,384.5 710.2,449.3 706.7,451.3 594.4,386.5" fill="#dcb789" stroke="#5a3a1a" stroke-width="0.3" stroke-linejoin="round"/><polygon points="811.9,386.5 815.4,388.5 710.2,449.3 706.7,447.2" fill="#dcb789" stroke="#5a3a1a" stroke-width="0.3" stroke-linejoin="round"/><polygon points="822.4,384.5 934.6,449.3 931.1,451.3 818.9,386.5" fill="#dcb789" stroke="#5a3a1a" stroke-width="0.3" stroke-linejoin="round"/><polygon points="369.9,401.3 482.2,466.1 482.2,451.3 369.9,386.5" fill="#b3854f" stroke="#5a3a1a" stroke-width="0.3" stroke-linejoin="round"/><polygon points="590.9,403.4 485.7,464.1 485.7,449.3 590.9,388.5" fill="#c89f69" stroke="#5a3a1a" stroke-width="0.3" stroke-linejoin="round"/><polygon points="594.4,401.3 706.7,466.1 706.7,451.3 594.4,386.5" fill="#b3854f" stroke="#5a3a1a" stroke-width="0.3" stroke-linejoin="round"/><polygon points="815.4,403.4 710.2,464.1 710.2,449.3 815.4,388.5" fill="#c89f69" stroke="#5a3a1a" stroke-width="0.3" stroke-linejoin="round"/><polygon points="818.9,401.3 931.1,466.1 931.1,451.3 818.9,386.5" fill="#b3854f" stroke="#5a3a1a" stroke-width="0.3" stroke-linejoin="round"/><polygon points="594.4,386.5 706.7,451.3 703.1,453.3 590.9,388.5" fill="#dcb789" stroke="#5a3a1a" stroke-width="0.3" stroke-linejoin="round"/><polygon points="590.9,388.5 594.4,390.5 489.2,451.3 485.7,449.3" fill="#dcb789" stroke="#5a3a1a" stroke-width="0.3" stroke-linejoin="round"/><polygon points="818.9,386.5 931.1,451.3 927.6,453.3 815.4,388.5" fill="#dcb789" stroke="#5a3a1a" stroke-width="0.3" stroke-linejoin="round"/><polygon points="815.4,388.5 818.9,390.5 713.7,451.3 710.2,449.3" fill="#dcb789" stroke="#5a3a1a" stroke-width="0.3" stroke-linejoin="round"/><polygon points="590.9,403.4 703.1,468.2 703.1,453.3 590.9,388.5" fill="#b3854f" stroke="#5a3a1a" stroke-width="0.3" stroke-linejoin="round"/><polygon points="594.4,405.4 489.2,466.1 489.2,451.3 594.4,390.5" fill="#c89f69" stroke="#5a3a1a" stroke-width="0.3" stroke-linejoin="round"/><polygon points="815.4,403.4 927.6,468.2 927.6,453.3 815.4,388.5" fill="#b3854f" stroke="#5a3a1a" stroke-width="0.3" stroke-linejoin="round"/><polygon points="818.9,405.4 713.7,466.1 713.7,451.3 818.9,390.5" fill="#c89f69" stroke="#5a3a1a" stroke-width="0.3" stroke-linejoin="round"/><polygon points="1028.6,442.3 1020.1,430.9 1020.1,416.1 1028.6,427.4" fill="#b3854f" stroke="#5a3a1a" stroke-width="0.3" stroke-linejoin="round"/><polygon points="436.6,435.8 440.1,437.8 440.1,422.9 436.6,420.9" fill="#b3854f" stroke="#5a3a1a" stroke-width="0.3" stroke-linejoin="round"/><polygon points="661.1,435.8 664.6,437.8 664.6,422.9 661.1,420.9" fill="#b3854f" stroke="#5a3a1a" stroke-width="0.3" stroke-linejoin="round"/><polygon points="885.5,435.8 889.0,437.8 889.0,422.9 885.5,420.9" fill="#b3854f" stroke="#5a3a1a" stroke-width="0.3" stroke-linejoin="round"/><polygon points="1011.9,400.6 1015.4,402.6 934.6,449.3 931.1,447.2" fill="#dcb789" stroke="#5a3a1a" stroke-width="0.3" stroke-linejoin="round"/><polygon points="1015.4,417.5 934.6,464.1 934.6,449.3 1015.4,402.6" fill="#c89f69" stroke="#5a3a1a" stroke-width="0.3" stroke-linejoin="round"/><polygon points="1014.1,403.3 1017.7,405.4 938.1,451.3 934.6,449.3" fill="#dcb789" stroke="#5a3a1a" stroke-width="0.3" stroke-linejoin="round"/><polygon points="1017.7,420.2 938.1,466.1 938.1,451.3 1017.7,405.4" fill="#c89f69" stroke="#5a3a1a" stroke-width="0.3" stroke-linejoin="round"/><polygon points="1036.5,453.9 1028.6,442.3 1028.6,427.4 1036.5,439.1" fill="#b3854f" stroke="#5a3a1a" stroke-width="0.3" stroke-linejoin="round"/><polygon points="1043.9,465.8 1036.5,453.9 1036.5,439.1 1043.9,451.0" fill="#b3854f" stroke="#5a3a1a" stroke-width="0.3" stroke-linejoin="round"/><polygon points="636.5,414.8 640.0,416.9 534.8,477.6 531.3,475.6" fill="#dcb789" stroke="#5a3a1a" stroke-width="0.3" stroke-linejoin="round"/><polygon points="861.0,414.8 864.5,416.9 759.3,477.6 755.8,475.6" fill="#dcb789" stroke="#5a3a1a" stroke-width="0.3" stroke-linejoin="round"/><polygon points="640.0,431.7 534.8,492.5 534.8,477.6 640.0,416.9" fill="#c89f69" stroke="#5a3a1a" stroke-width="0.3" stroke-linejoin="round"/><polygon points="864.5,431.7 759.3,492.5 759.3,477.6 864.5,416.9" fill="#c89f69" stroke="#5a3a1a" stroke-width="0.3" stroke-linejoin="round"/><polygon points="482.2,462.1 485.7,464.1 485.7,449.3 482.2,447.2" fill="#b3854f" stroke="#5a3a1a" stroke-width="0.3" stroke-linejoin="round"/><polygon points="706.7,462.1 710.2,464.1 710.2,449.3 706.7,447.2" fill="#b3854f" stroke="#5a3a1a" stroke-width="0.3" stroke-linejoin="round"/><polygon points="931.1,462.1 934.6,464.1 934.6,449.3 931.1,447.2" fill="#b3854f" stroke="#5a3a1a" stroke-width="0.3" stroke-linejoin="round"/><polygon points="485.7,464.1 482.2,466.1 482.2,451.3 485.7,449.3" fill="#c89f69" stroke="#5a3a1a" stroke-width="0.3" stroke-linejoin="round"/><polygon points="485.7,464.1 489.2,466.1 489.2,451.3 485.7,449.3" fill="#b3854f" stroke="#5a3a1a" stroke-width="0.3" stroke-linejoin="round"/><polygon points="710.2,464.1 706.7,466.1 706.7,451.3 710.2,449.3" fill="#c89f69" stroke="#5a3a1a" stroke-width="0.3" stroke-linejoin="round"/><polygon points="710.2,464.1 713.7,466.1 713.7,451.3 710.2,449.3" fill="#b3854f" stroke="#5a3a1a" stroke-width="0.3" stroke-linejoin="round"/><polygon points="934.6,464.1 931.1,466.1 931.1,451.3 934.6,449.3" fill="#c89f69" stroke="#5a3a1a" stroke-width="0.3" stroke-linejoin="round"/><polygon points="934.6,464.1 938.1,466.1 938.1,451.3 934.6,449.3" fill="#b3854f" stroke="#5a3a1a" stroke-width="0.3" stroke-linejoin="round"/><polygon points="1067.9,501.9 1062.8,488.6 1057.1,475.8 1050.8,463.2 1043.9,451.0 1036.5,439.1 1028.6,427.4 1020.1,416.1 1011.3,405.0 1014.8,403.0 1023.7,414.1 1032.1,425.4 1040.0,437.0 1047.4,448.9 1054.3,461.2 1060.6,473.7 1066.3,486.6 1071.4,499.9" fill="#dcb789" stroke="#5a3a1a" stroke-width="0.3" stroke-linejoin="round"/><polygon points="706.7,466.1 703.1,468.2 703.1,453.3 706.7,451.3" fill="#c89f69" stroke="#5a3a1a" stroke-width="0.3" stroke-linejoin="round"/><polygon points="931.1,466.1 927.6,468.2 927.6,453.3 931.1,451.3" fill="#c89f69" stroke="#5a3a1a" stroke-width="0.3" stroke-linejoin="round"/><polygon points="654.0,425.0 657.6,427.0 552.3,487.7 548.8,485.7" fill="#dcb789" stroke="#5a3a1a" stroke-width="0.3" stroke-linejoin="round"/><polygon points="878.5,425.0 882.0,427.0 776.8,487.7 773.3,485.7" fill="#dcb789" stroke="#5a3a1a" stroke-width="0.3" stroke-linejoin="round"/><polygon points="1050.8,478.1 1043.9,465.8 1043.9,451.0 1050.8,463.2" fill="#b3854f" stroke="#5a3a1a" stroke-width="0.3" stroke-linejoin="round"/><polygon points="657.6,441.8 552.3,502.6 552.3,487.7 657.6,427.0" fill="#c89f69" stroke="#5a3a1a" stroke-width="0.3" stroke-linejoin="round"/><polygon points="882.0,441.8 776.8,502.6 776.8,487.7 882.0,427.0" fill="#c89f69" stroke="#5a3a1a" stroke-width="0.3" stroke-linejoin="round"/><polygon points="1041.1,440.5 1044.6,442.5 983.7,477.6 980.2,475.6" fill="#dcb789" stroke="#5a3a1a" stroke-width="0.3" stroke-linejoin="round"/><polygon points="1044.6,457.3 983.7,492.5 983.7,477.6 1044.6,442.5" fill="#c89f69" stroke="#5a3a1a" stroke-width="0.3" stroke-linejoin="round"/><polygon points="1057.1,490.6 1050.8,478.1 1050.8,463.2 1057.1,475.8" fill="#b3854f" stroke="#5a3a1a" stroke-width="0.3" stroke-linejoin="round"/><polygon points="1050.0,455.5 1053.5,457.6 1001.3,487.7 997.8,485.7" fill="#dcb789" stroke="#5a3a1a" stroke-width="0.3" stroke-linejoin="round"/><polygon points="1053.5,472.4 1001.3,502.6 1001.3,487.7 1053.5,457.6" fill="#c89f69" stroke="#5a3a1a" stroke-width="0.3" stroke-linejoin="round"/><polygon points="531.3,490.4 534.8,492.5 534.8,477.6 531.3,475.6" fill="#b3854f" stroke="#5a3a1a" stroke-width="0.3" stroke-linejoin="round"/><polygon points="755.8,490.4 759.3,492.5 759.3,477.6 755.8,475.6" fill="#b3854f" stroke="#5a3a1a" stroke-width="0.3" stroke-linejoin="round"/><polygon points="980.2,490.4 983.7,492.5 983.7,477.6 980.2,475.6" fill="#b3854f" stroke="#5a3a1a" stroke-width="0.3" stroke-linejoin="round"/><polygon points="1062.8,503.5 1057.1,490.6 1057.1,475.8 1062.8,488.6" fill="#b3854f" stroke="#5a3a1a" stroke-width="0.3" stroke-linejoin="round"/><polygon points="485.7,449.3 597.9,514.1 594.4,516.1 482.2,451.3" fill="#dcb789" stroke="#5a3a1a" stroke-width="0.3" stroke-linejoin="round"/><polygon points="699.6,451.3 703.1,453.3 597.9,514.1 594.4,512.0" fill="#dcb789" stroke="#5a3a1a" stroke-width="0.3" stroke-linejoin="round"/><polygon points="710.2,449.3 822.4,514.1 818.9,516.1 706.7,451.3" fill="#dcb789" stroke="#5a3a1a" stroke-width="0.3" stroke-linejoin="round"/><polygon points="924.1,451.3 927.6,453.3 822.4,514.1 818.9,512.0" fill="#dcb789" stroke="#5a3a1a" stroke-width="0.3" stroke-linejoin="round"/><polygon points="934.6,449.3 1046.9,514.1 1043.4,516.1 931.1,451.3" fill="#dcb789" stroke="#5a3a1a" stroke-width="0.3" stroke-linejoin="round"/><polygon points="482.2,466.1 594.4,530.9 594.4,516.1 482.2,451.3" fill="#b3854f" stroke="#5a3a1a" stroke-width="0.3" stroke-linejoin="round"/><polygon points="703.1,468.2 597.9,528.9 597.9,514.1 703.1,453.3" fill="#c89f69" stroke="#5a3a1a" stroke-width="0.3" stroke-linejoin="round"/><polygon points="706.7,466.1 818.9,530.9 818.9,516.1 706.7,451.3" fill="#b3854f" stroke="#5a3a1a" stroke-width="0.3" stroke-linejoin="round"/><polygon points="927.6,468.2 822.4,528.9 822.4,514.1 927.6,453.3" fill="#c89f69" stroke="#5a3a1a" stroke-width="0.3" stroke-linejoin="round"/><polygon points="931.1,466.1 1043.4,530.9 1043.4,516.1 931.1,451.3" fill="#b3854f" stroke="#5a3a1a" stroke-width="0.3" stroke-linejoin="round"/><polygon points="706.7,451.3 818.9,516.1 815.4,518.1 703.1,453.3" fill="#dcb789" stroke="#5a3a1a" stroke-width="0.3" stroke-linejoin="round"/><polygon points="703.1,453.3 706.7,455.3 601.4,516.1 597.9,514.1" fill="#dcb789" stroke="#5a3a1a" stroke-width="0.3" stroke-linejoin="round"/><polygon points="931.1,451.3 1043.4,516.1 1039.9,518.1 927.6,453.3" fill="#dcb789" stroke="#5a3a1a" stroke-width="0.3" stroke-linejoin="round"/><polygon points="927.6,453.3 931.1,455.3 825.9,516.1 822.4,514.1" fill="#dcb789" stroke="#5a3a1a" stroke-width="0.3" stroke-linejoin="round"/><polygon points="703.1,468.2 815.4,533.0 815.4,518.1 703.1,453.3" fill="#b3854f" stroke="#5a3a1a" stroke-width="0.3" stroke-linejoin="round"/><polygon points="706.7,470.2 601.4,530.9 601.4,516.1 706.7,455.3" fill="#c89f69" stroke="#5a3a1a" stroke-width="0.3" stroke-linejoin="round"/><polygon points="927.6,468.2 1039.9,533.0 1039.9,518.1 927.6,453.3" fill="#b3854f" stroke="#5a3a1a" stroke-width="0.3" stroke-linejoin="round"/><polygon points="931.1,470.2 825.9,530.9 825.9,516.1 931.1,455.3" fill="#c89f69" stroke="#5a3a1a" stroke-width="0.3" stroke-linejoin="round"/><polygon points="548.8,500.6 552.3,502.6 552.3,487.7 548.8,485.7" fill="#b3854f" stroke="#5a3a1a" stroke-width="0.3" stroke-linejoin="round"/><polygon points="773.3,500.6 776.8,502.6 776.8,487.7 773.3,485.7" fill="#b3854f" stroke="#5a3a1a" stroke-width="0.3" stroke-linejoin="round"/><polygon points="997.8,500.6 1001.3,502.6 1001.3,487.7 997.8,485.7" fill="#b3854f" stroke="#5a3a1a" stroke-width="0.3" stroke-linejoin="round"/><polygon points="1067.9,516.8 1062.8,503.5 1062.8,488.6 1067.9,501.9" fill="#b3854f" stroke="#5a3a1a" stroke-width="0.3" stroke-linejoin="round"/><polygon points="1071.4,514.7 1067.9,516.8 1067.9,501.9 1071.4,499.9" fill="#c89f69" stroke="#5a3a1a" stroke-width="0.3" stroke-linejoin="round"/><polygon points="1069.1,497.2 1072.6,499.2 1046.9,514.1 1043.4,512.0" fill="#dcb789" stroke="#5a3a1a" stroke-width="0.3" stroke-linejoin="round"/><polygon points="1072.6,514.1 1046.9,528.9 1046.9,514.1 1072.6,499.2" fill="#c89f69" stroke="#5a3a1a" stroke-width="0.3" stroke-linejoin="round"/><polygon points="748.7,479.6 752.3,481.7 647.0,542.4 643.5,540.4" fill="#dcb789" stroke="#5a3a1a" stroke-width="0.3" stroke-linejoin="round"/><polygon points="973.2,479.6 976.7,481.7 871.5,542.4 868.0,540.4" fill="#dcb789" stroke="#5a3a1a" stroke-width="0.3" stroke-linejoin="round"/><polygon points="752.3,496.5 647.0,557.3 647.0,542.4 752.3,481.7" fill="#c89f69" stroke="#5a3a1a" stroke-width="0.3" stroke-linejoin="round"/><polygon points="976.7,496.5 871.5,557.3 871.5,542.4 976.7,481.7" fill="#c89f69" stroke="#5a3a1a" stroke-width="0.3" stroke-linejoin="round"/><polygon points="594.4,526.9 597.9,528.9 597.9,514.1 594.4,512.0" fill="#b3854f" stroke="#5a3a1a" stroke-width="0.3" stroke-linejoin="round"/><polygon points="818.9,526.9 822.4,528.9 822.4,514.1 818.9,512.0" fill="#b3854f" stroke="#5a3a1a" stroke-width="0.3" stroke-linejoin="round"/><polygon points="1043.4,526.9 1046.9,528.9 1046.9,514.1 1043.4,512.0" fill="#b3854f" stroke="#5a3a1a" stroke-width="0.3" stroke-linejoin="round"/><polygon points="597.9,528.9 594.4,530.9 594.4,516.1 597.9,514.1" fill="#c89f69" stroke="#5a3a1a" stroke-width="0.3" stroke-linejoin="round"/><polygon points="597.9,528.9 601.4,530.9 601.4,516.1 597.9,514.1" fill="#b3854f" stroke="#5a3a1a" stroke-width="0.3" stroke-linejoin="round"/><polygon points="822.4,528.9 818.9,530.9 818.9,516.1 822.4,514.1" fill="#c89f69" stroke="#5a3a1a" stroke-width="0.3" stroke-linejoin="round"/><polygon points="822.4,528.9 825.9,530.9 825.9,516.1 822.4,514.1" fill="#b3854f" stroke="#5a3a1a" stroke-width="0.3" stroke-linejoin="round"/><polygon points="1046.9,528.9 1043.4,530.9 1043.4,516.1 1046.9,514.1" fill="#c89f69" stroke="#5a3a1a" stroke-width="0.3" stroke-linejoin="round"/><polygon points="818.9,530.9 815.4,533.0 815.4,518.1 818.9,516.1" fill="#c89f69" stroke="#5a3a1a" stroke-width="0.3" stroke-linejoin="round"/><polygon points="1043.4,530.9 1039.9,533.0 1039.9,518.1 1043.4,516.1" fill="#c89f69" stroke="#5a3a1a" stroke-width="0.3" stroke-linejoin="round"/><polygon points="766.3,489.8 769.8,491.8 664.6,552.5 661.1,550.5" fill="#dcb789" stroke="#5a3a1a" stroke-width="0.3" stroke-linejoin="round"/><polygon points="990.8,489.8 994.3,491.8 889.0,552.5 885.5,550.5" fill="#dcb789" stroke="#5a3a1a" stroke-width="0.3" stroke-linejoin="round"/><polygon points="769.8,506.6 664.6,567.4 664.6,552.5 769.8,491.8" fill="#c89f69" stroke="#5a3a1a" stroke-width="0.3" stroke-linejoin="round"/><polygon points="994.3,506.6 889.0,567.4 889.0,552.5 994.3,491.8" fill="#c89f69" stroke="#5a3a1a" stroke-width="0.3" stroke-linejoin="round"/><polygon points="643.5,555.2 647.0,557.3 647.0,542.4 643.5,540.4" fill="#b3854f" stroke="#5a3a1a" stroke-width="0.3" stroke-linejoin="round"/><polygon points="868.0,555.2 871.5,557.3 871.5,542.4 868.0,540.4" fill="#b3854f" stroke="#5a3a1a" stroke-width="0.3" stroke-linejoin="round"/><polygon points="597.9,514.1 710.2,578.9 706.7,580.9 594.4,516.1" fill="#dcb789" stroke="#5a3a1a" stroke-width="0.3" stroke-linejoin="round"/><polygon points="811.9,516.1 815.4,518.1 710.2,578.9 706.7,576.8" fill="#dcb789" stroke="#5a3a1a" stroke-width="0.3" stroke-linejoin="round"/><polygon points="822.4,514.1 934.6,578.9 931.1,580.9 818.9,516.1" fill="#dcb789" stroke="#5a3a1a" stroke-width="0.3" stroke-linejoin="round"/><polygon points="1036.4,516.1 1039.9,518.1 934.6,578.9 931.1,576.8" fill="#dcb789" stroke="#5a3a1a" stroke-width="0.3" stroke-linejoin="round"/><polygon points="594.4,530.9 706.7,595.7 706.7,580.9 594.4,516.1" fill="#b3854f" stroke="#5a3a1a" stroke-width="0.3" stroke-linejoin="round"/><polygon points="815.4,533.0 710.2,593.7 710.2,578.9 815.4,518.1" fill="#c89f69" stroke="#5a3a1a" stroke-width="0.3" stroke-linejoin="round"/><polygon points="818.9,530.9 931.1,595.7 931.1,580.9 818.9,516.1" fill="#b3854f" stroke="#5a3a1a" stroke-width="0.3" stroke-linejoin="round"/><polygon points="1039.9,533.0 934.6,593.7 934.6,578.9 1039.9,518.1" fill="#c89f69" stroke="#5a3a1a" stroke-width="0.3" stroke-linejoin="round"/><polygon points="818.9,516.1 931.1,580.9 927.6,582.9 815.4,518.1" fill="#dcb789" stroke="#5a3a1a" stroke-width="0.3" stroke-linejoin="round"/><polygon points="815.4,518.1 818.9,520.1 713.7,580.9 710.2,578.9" fill="#dcb789" stroke="#5a3a1a" stroke-width="0.3" stroke-linejoin="round"/><polygon points="815.4,533.0 927.6,597.8 927.6,582.9 815.4,518.1" fill="#b3854f" stroke="#5a3a1a" stroke-width="0.3" stroke-linejoin="round"/><polygon points="818.9,535.0 713.7,595.7 713.7,580.9 818.9,520.1" fill="#c89f69" stroke="#5a3a1a" stroke-width="0.3" stroke-linejoin="round"/><polygon points="661.1,565.4 664.6,567.4 664.6,552.5 661.1,550.5" fill="#b3854f" stroke="#5a3a1a" stroke-width="0.3" stroke-linejoin="round"/><polygon points="885.5,565.4 889.0,567.4 889.0,552.5 885.5,550.5" fill="#b3854f" stroke="#5a3a1a" stroke-width="0.3" stroke-linejoin="round"/><polygon points="80.0,363.5 828.2,795.5 828.2,795.5 80.0,363.5" fill="#e6e4d9"/><polygon points="861.0,544.4 864.5,546.5 759.3,607.2 755.8,605.2" fill="#dcb789" stroke="#5a3a1a" stroke-width="0.3" stroke-linejoin="round"/><polygon points="864.5,561.3 759.3,622.1 759.3,607.2 864.5,546.5" fill="#c89f69" stroke="#5a3a1a" stroke-width="0.3" stroke-linejoin="round"/><polygon points="706.7,591.7 710.2,593.7 710.2,578.9 706.7,576.8" fill="#b3854f" stroke="#5a3a1a" stroke-width="0.3" stroke-linejoin="round"/><polygon points="931.1,591.7 934.6,593.7 934.6,578.9 931.1,576.8" fill="#b3854f" stroke="#5a3a1a" stroke-width="0.3" stroke-linejoin="round"/><polygon points="710.2,593.7 706.7,595.7 706.7,580.9 710.2,578.9" fill="#c89f69" stroke="#5a3a1a" stroke-width="0.3" stroke-linejoin="round"/><polygon points="710.2,593.7 713.7,595.7 713.7,580.9 710.2,578.9" fill="#b3854f" stroke="#5a3a1a" stroke-width="0.3" stroke-linejoin="round"/><polygon points="934.6,593.7 931.1,595.7 931.1,580.9 934.6,578.9" fill="#c89f69" stroke="#5a3a1a" stroke-width="0.3" stroke-linejoin="round"/><polygon points="931.1,595.7 927.6,597.8 927.6,582.9 931.1,580.9" fill="#c89f69" stroke="#5a3a1a" stroke-width="0.3" stroke-linejoin="round"/><polygon points="878.5,554.6 882.0,556.6 776.8,617.3 773.3,615.3" fill="#dcb789" stroke="#5a3a1a" stroke-width="0.3" stroke-linejoin="round"/><polygon points="882.0,571.4 776.8,632.2 776.8,617.3 882.0,556.6" fill="#c89f69" stroke="#5a3a1a" stroke-width="0.3" stroke-linejoin="round"/><polygon points="755.8,620.0 759.3,622.1 759.3,607.2 755.8,605.2" fill="#b3854f" stroke="#5a3a1a" stroke-width="0.3" stroke-linejoin="round"/><polygon points="710.2,578.9 822.4,643.7 818.9,645.7 706.7,580.9" fill="#dcb789" stroke="#5a3a1a" stroke-width="0.3" stroke-linejoin="round"/><polygon points="924.1,580.9 927.6,582.9 822.4,643.7 818.9,641.6" fill="#dcb789" stroke="#5a3a1a" stroke-width="0.3" stroke-linejoin="round"/><polygon points="706.7,595.7 818.9,660.5 818.9,645.7 706.7,580.9" fill="#b3854f" stroke="#5a3a1a" stroke-width="0.3" stroke-linejoin="round"/><polygon points="927.6,597.8 822.4,658.5 822.4,643.7 927.6,582.9" fill="#c89f69" stroke="#5a3a1a" stroke-width="0.3" stroke-linejoin="round"/><polygon points="773.3,630.2 776.8,632.2 776.8,617.3 773.3,615.3" fill="#b3854f" stroke="#5a3a1a" stroke-width="0.3" stroke-linejoin="round"/><polygon points="1319.3,512.0 828.2,795.5 828.2,795.5 1319.3,512.0" fill="#e9e7dc"/><polygon points="818.9,656.5 822.4,658.5 822.4,643.7 818.9,641.6" fill="#b3854f" stroke="#5a3a1a" stroke-width="0.3" stroke-linejoin="round"/><polygon points="822.4,658.5 818.9,660.5 818.9,645.7 822.4,643.7" fill="#c89f69" stroke="#5a3a1a" stroke-width="0.3" stroke-linejoin="round"/></g></svg>