<?xml version="1.0" encoding="UTF-8"?>
<svg xmlns="http://www.w3.org/2000/svg" viewBox="0 0 1126 590" role="img" aria-label="Jobsite Social">
<title>Jobsite Social</title>
<g fill="#FEBD17">
<rect x="40" y="40" width="28" height="160"/>
<rect x="40" y="40" width="100" height="28"/>
</g>
<g transform="translate(170.00 260.00) scale(0.31429 -0.31429)"><path d="M16 0V100Q32 96 52 96Q85 96 101.0 112.5Q117 129 117 163V700H227V166Q227 80 187.5 38.0Q148 -4 67 -4Q37 -4 16 0Z" fill="#1A1A1A"/></g>
<g transform="translate(259.57 260.00) scale(0.31429 -0.31429)"><path d="M33 166V534Q33 618 76.0 664.0Q119 710 200 710Q281 710 324.0 664.0Q367 618 367 534V166Q367 82 324.0 36.0Q281 -10 200 -10Q119 -10 76.0 36.0Q33 82 33 166ZM257 159V541Q257 610 200 610Q143 610 143 541V159Q143 90 200 90Q257 90 257 159Z" fill="#1A1A1A"/></g>
<g transform="translate(391.57 260.00) scale(0.31429 -0.31429)"><path d="M41 700H207Q292 700 331.0 660.5Q370 621 370 539V511Q370 457 352.5 423.0Q335 389 299 374V372Q381 344 381 226V166Q381 85 338.5 42.5Q296 0 214 0H41ZM194 415Q227 415 243.5 432.0Q260 449 260 489V528Q260 566 246.5 583.0Q233 600 204 600H151V415ZM214 100Q243 100 257.0 115.5Q271 131 271 169V230Q271 278 254.5 296.5Q238 315 200 315H151V100Z" fill="#1A1A1A"/></g>
<g transform="translate(524.83 260.00) scale(0.31429 -0.31429)"><path d="M22 166V206H126V158Q126 90 183 90Q211 90 225.5 106.5Q240 123 240 160Q240 204 220.0 237.5Q200 271 146 318Q78 378 51.0 426.5Q24 475 24 536Q24 619 66.0 664.5Q108 710 188 710Q267 710 307.5 664.5Q348 619 348 534V505H244V541Q244 577 230.0 593.5Q216 610 189 610Q134 610 134 543Q134 505 154.5 472.0Q175 439 229 392Q298 332 324.0 283.0Q350 234 350 168Q350 82 307.5 36.0Q265 -10 184 -10Q104 -10 63.0 35.5Q22 81 22 166Z" fill="#1A1A1A"/></g>
<g transform="translate(648.03 260.00) scale(0.31429 -0.31429)"><path d="M41 700H151V0H41Z" fill="#1A1A1A"/></g>
<g transform="translate(714.66 260.00) scale(0.31429 -0.31429)"><path d="M127 600H12V700H352V600H237V0H127Z" fill="#1A1A1A"/></g>
<g transform="translate(835.34 260.00) scale(0.31429 -0.31429)"><path d="M41 700H341V600H151V415H302V315H151V100H341V0H41Z" fill="#1A1A1A"/></g>
<g transform="translate(215.26 510.00) scale(0.31429 -0.31429)"><path d="M22 166V206H126V158Q126 90 183 90Q211 90 225.5 106.5Q240 123 240 160Q240 204 220.0 237.5Q200 271 146 318Q78 378 51.0 426.5Q24 475 24 536Q24 619 66.0 664.5Q108 710 188 710Q267 710 307.5 664.5Q348 619 348 534V505H244V541Q244 577 230.0 593.5Q216 610 189 610Q134 610 134 543Q134 505 154.5 472.0Q175 439 229 392Q298 332 324.0 283.0Q350 234 350 168Q350 82 307.5 36.0Q265 -10 184 -10Q104 -10 63.0 35.5Q22 81 22 166Z" fill="#FEBD17"/></g>
<g transform="translate(338.46 510.00) scale(0.31429 -0.31429)"><path d="M33 166V534Q33 618 76.0 664.0Q119 710 200 710Q281 710 324.0 664.0Q367 618 367 534V166Q367 82 324.0 36.0Q281 -10 200 -10Q119 -10 76.0 36.0Q33 82 33 166ZM257 159V541Q257 610 200 610Q143 610 143 541V159Q143 90 200 90Q257 90 257 159Z" fill="#FEBD17"/></g>
<g transform="translate(470.46 510.00) scale(0.31429 -0.31429)"><path d="M34 162V538Q34 620 75.5 665.0Q117 710 196 710Q275 710 316.5 665.0Q358 620 358 538V464H254V545Q254 610 199 610Q144 610 144 545V154Q144 90 199 90Q254 90 254 154V261H358V162Q358 80 316.5 35.0Q275 -10 196 -10Q117 -10 75.5 35.0Q34 80 34 162Z" fill="#FEBD17"/></g>
<g transform="translate(597.11 510.00) scale(0.31429 -0.31429)"><path d="M41 700H151V0H41Z" fill="#FEBD17"/></g>
<g transform="translate(663.74 510.00) scale(0.31429 -0.31429)"><path d="M126 700H275L389 0H279L259 139V137H134L114 0H12ZM246 232 197 578H195L147 232Z" fill="#FEBD17"/></g>
<g transform="translate(796.06 510.00) scale(0.31429 -0.31429)"><path d="M41 700H151V100H332V0H41Z" fill="#FEBD17"/></g>
<g fill="#1A1A1A">
<rect x="1057.7142857142858" y="378" width="28" height="160"/>
<rect x="985.7142857142858" y="510" width="100" height="28"/>
</g>
</svg>